<?xml version="1.0" standalone="no"?>
<!DOCTYPE svg PUBLIC "-//W3C//DTD SVG 1.1//EN" "http://www.w3.org/Graphics/SVG/1.1/DTD/svg11.dtd" >
<svg xmlns="http://www.w3.org/2000/svg" xmlns:xlink="http://www.w3.org/1999/xlink" version="1.1">
<metadata></metadata>
<defs>
<font id="rbc_displayregular" horiz-adv-x="540" >
<font-face units-per-em="2048" ascent="1475" descent="-573" />
<missing-glyph horiz-adv-x="485" />
<glyph unicode="fi" horiz-adv-x="1214" d="M772 1571l-55 -148q-130 68 -209 68q-86 0 -128 -80.5t-42 -257.5v-104h289v-117h-289v-932h-172v1124q0 203 55 303q101 177 338 177q105 0 213 -33zM1030 1049v-1049h-172v1049h172zM1061 1364q0 -48 -35 -83.5t-84 -35.5t-83 35.5t-34 83.5q0 51 34 87t83 36t84 -36 t35 -87z" />
<glyph unicode="fl" horiz-adv-x="1232" d="M772 1571l-55 -148q-130 68 -209 68q-86 0 -128 -80.5t-42 -257.5v-104h289v-117h-289v-932h-172v1124q0 203 55 303q101 177 338 177q105 0 213 -33zM1051 1571v-1571h-172v1571h172z" />
<glyph unicode=" "  horiz-adv-x="485" />
<glyph unicode="&#x09;" horiz-adv-x="485" />
<glyph unicode="&#xa0;" horiz-adv-x="485" />
<glyph unicode="!" horiz-adv-x="534" d="M365 1487l-54 -1094h-88l-55 1094h197zM383 88q0 -50 -34 -84.5t-83 -34.5t-82.5 34.5t-33.5 84.5t33.5 86.5t82.5 36.5t83 -36.5t34 -86.5z" />
<glyph unicode="&#x22;" horiz-adv-x="804" d="M610 1112h-98l-20 461h137zM293 1112h-98l-19 461h137z" />
<glyph unicode="#" horiz-adv-x="1148" d="M1055 956l-19 -108h-209l-47 -258h209l-22 -109h-211l-66 -368h-115l66 368h-225l-74 -368h-109l70 368h-211l19 109h213l51 258h-217l22 108h215l66 342h110l-63 -342h225l64 342h114l-67 -342h211zM713 848h-226l-49 -258h224z" />
<glyph unicode="$" horiz-adv-x="1087" d="M901 1219l-65 -138q-48 59 -125.5 101.5t-171.5 42.5q-102 0 -169 -49.5t-67 -135.5q0 -37 14 -68.5t35 -54t61.5 -47t77.5 -41.5t99 -43q65 -26 106 -44.5t94.5 -51.5t84.5 -65.5t53 -80.5t22 -104q0 -146 -103.5 -242t-252.5 -116v-227h-107v227q-98 7 -200 42.5 t-172 82.5l65 141q64 -64 163 -115t196 -51q116 0 184 57.5t68 135.5q0 74 -69.5 134t-232.5 128q-57 24 -101 45.5t-94.5 54.5t-83.5 68t-55 83t-22 101q0 91 51 165t130 115.5t173 53.5v197h107v-195q143 -10 307 -106z" />
<glyph unicode="%" horiz-adv-x="1769" d="M815 1020q0 -171 -103.5 -283t-252.5 -112q-151 0 -255 112t-104 283t104 283t255 112q149 0 252.5 -112t103.5 -283zM659 1020q0 125 -57 211t-143 86t-145.5 -86t-59.5 -211q0 -126 58.5 -211.5t146.5 -85.5q86 0 143 86t57 211zM1350 1430l-801 -1450h-127l801 1450 h127zM1667 391q0 -171 -103 -283t-251 -112q-153 0 -257 112t-104 283q0 170 104.5 282.5t256.5 112.5q148 0 251 -112.5t103 -282.5zM1513 391q0 125 -57 211t-143 86q-87 0 -146 -86t-59 -211q0 -126 58.5 -211.5t146.5 -85.5q86 0 143 86t57 211z" />
<glyph unicode="&#x26;" horiz-adv-x="1409" d="M913 240l-417 508q-34 -18 -66.5 -43.5t-67.5 -64.5t-56 -94t-21 -116q0 -75 31.5 -139t80.5 -103.5t105 -61.5t110 -22q169 0 301 136zM1264 756q-21 -114 -72 -243t-107 -200l13 -18q4 -4 53.5 -64t93 -107.5t94.5 -94.5v-29h-229l-133 162q-29 -33 -65.5 -62.5 t-90 -62t-125.5 -51.5t-151 -19q-184 0 -311.5 115t-127.5 276q0 142 84 262t240 207q-35 41 -58 73t-48 97t-25 133q0 96 53.5 170t139.5 111t188 37q175 0 336 -102l-76 -148q-43 52 -125 97.5t-162 45.5q-75 0 -126.5 -50t-51.5 -130q0 -32 12 -68.5t25.5 -64t47.5 -74.5 t52 -69.5t66 -80.5t65 -79l271 -330q36 60 64 157t28 204h158z" />
<glyph unicode="'" horiz-adv-x="487" d="M293 1112h-98l-19 461h137z" />
<glyph unicode="(" horiz-adv-x="784" d="M598 -492l-86 -38q-326 525 -326 1050q0 156 30 315.5t81 295t103.5 242.5t111.5 198l86 -39q-100 -207 -162.5 -481.5t-62.5 -530.5q0 -252 63 -525t162 -487z" />
<glyph unicode=")" horiz-adv-x="784" d="M272 -530l-84 38q99 214 161.5 486.5t62.5 525.5q0 256 -62.5 530.5t-161.5 481.5l84 39q59 -92 112 -198t105 -242t82.5 -295.5t30.5 -315.5q0 -519 -330 -1050z" />
<glyph unicode="*" horiz-adv-x="995" d="M872 1163l-315 -69l219 -256l-127 -97l-151 301l-152 -301l-129 97l217 256l-311 69l49 154l287 -143l-43 331h164l-43 -331l286 143z" />
<glyph unicode="+" horiz-adv-x="1116" d="M969 506h-351v-393h-120v393h-351v119h351v391h120v-391h351v-119z" />
<glyph unicode="," horiz-adv-x="485" d="M147 -291l-49 51q52 44 85.5 104.5t33.5 106.5q0 38 -26 67t-74 38l-6 16q6 52 44 85.5t85 33.5q50 0 90.5 -39.5t40.5 -103.5q0 -85 -66 -182t-158 -177z" />
<glyph unicode="-" horiz-adv-x="620" d="M545 506h-469v119h469v-119z" />
<glyph unicode="." horiz-adv-x="485" d="M358 88q0 -50 -33 -84.5t-83 -34.5q-47 0 -81 35t-34 84q0 50 34 86.5t81 36.5q50 0 83 -36t33 -87z" />
<glyph unicode="/" horiz-adv-x="641" d="M635 1573l-469 -1747h-119l467 1747h121z" />
<glyph unicode="0" horiz-adv-x="1165" d="M1059 702q0 -210 -62 -376.5t-171 -258.5t-246 -92q-134 0 -242 92.5t-170 258.5t-62 374q0 211 61.5 379.5t170 262.5t242.5 94q136 0 245.5 -94t171.5 -262t62 -378zM868 700q0 184 -31 326t-97 226.5t-158 84.5t-158 -84t-97.5 -224.5t-31.5 -323.5q0 -181 32.5 -323 t98.5 -226t156 -84q91 0 157 84t97.5 224t31.5 320z" />
<glyph unicode="1" horiz-adv-x="733" d="M508 0h-172l6 1247l-279 -133v111l453 211z" />
<glyph unicode="2" horiz-adv-x="1019" d="M891 0h-836v123l271 268q189 187 280.5 320.5t91.5 259.5q0 150 -74 246t-198 96q-165 0 -303 -131l-60 73q104 93 201 137t213 44q169 0 285.5 -115t116.5 -293q0 -72 -24.5 -146.5t-56.5 -130.5t-84 -118.5t-86.5 -98t-84.5 -81.5l-324 -301h672v-152z" />
<glyph unicode="3" horiz-adv-x="1050" d="M575 809q150 -12 243 -121t93 -268q0 -122 -73 -225t-192 -161.5t-253 -58.5q-180 0 -340 88l62 117q149 -104 319 -104q120 0 208.5 86.5t88.5 220.5q0 154 -85.5 239t-219.5 85h-109v114q153 5 244.5 78.5t91.5 206.5q0 92 -66 152.5t-161 60.5q-80 0 -150 -25.5 t-149 -79.5l-49 78q198 144 383 144q167 0 271 -88t104 -226q0 -218 -261 -313z" />
<glyph unicode="4" horiz-adv-x="1175" d="M1085 403h-182v-403h-172v403h-665v111l692 922h145v-885h182v-148zM731 551v674l-506 -674h506z" />
<glyph unicode="5" horiz-adv-x="1034" d="M899 1411v-154h-569l-54 -358q62 4 91 4q125 0 223.5 -30t159 -77t100 -111.5t55 -128.5t15.5 -132q0 -133 -72 -237t-188.5 -158t-253.5 -54q-184 0 -351 88l64 117q146 -104 317 -104q118 0 208.5 88.5t90.5 222.5q0 85 -24.5 150.5t-63.5 105t-94 65t-111 35t-120 9.5 q-71 0 -179 -17l95 676h661z" />
<glyph unicode="6" horiz-adv-x="1097" d="M850 1436l24 -80q-85 -5 -157 -26.5t-119 -50t-88 -70.5t-63 -75t-46 -77q-29 -51 -54 -128t-32 -143q154 86 303 86q81 0 152.5 -29.5t125 -83t85 -136t31.5 -181.5q0 -109 -38 -199.5t-101 -147.5t-142 -88.5t-164 -31.5q-97 0 -178 36t-143.5 107.5t-97.5 188 t-35 268.5q0 183 57.5 344t155.5 274t234.5 178t289.5 65zM307 682q-8 -52 -8 -121q0 -193 47 -303q38 -95 95.5 -143.5t127.5 -48.5q103 0 178.5 95.5t75.5 246.5q0 170 -71.5 260t-190.5 90q-122 0 -254 -76z" />
<glyph unicode="7" horiz-adv-x="956" d="M903 1356l-543 -1356h-180l578 1253h-707l12 158h840v-55z" />
<glyph unicode="8" horiz-adv-x="1044" d="M389 707q-110 70 -154 111q-118 110 -118 267q0 95 60.5 176.5t159 128t208.5 46.5q166 0 277.5 -86t111.5 -226q0 -51 -16.5 -96.5t-40.5 -79t-66 -68t-79 -58.5t-93 -56l41 -25q42 -27 62 -40t57.5 -41t57.5 -47.5t46.5 -51t40 -61t23.5 -68t10 -80.5 q0 -154 -138 -265.5t-337 -111.5q-117 0 -211 34.5t-153.5 108.5t-59.5 177q0 41 9.5 79t22.5 67.5t37.5 61t43 51.5t51 46.5t50.5 39t52 36t45 31.5zM561 819q88 48 149.5 129t61.5 168q0 80 -49 144q-29 38 -76 60.5t-104 22.5q-105 0 -170 -65q-72 -66 -72 -172 q0 -37 14.5 -71.5t33 -59t53.5 -52.5t59 -43.5t67 -41.5zM461 653q-91 -68 -152 -156.5t-61 -177.5q0 -106 71.5 -179.5t198.5 -73.5q129 0 203 73.5t74 179.5q0 89 -88 168q-36 33 -80.5 64t-101.5 64.5t-64 37.5z" />
<glyph unicode="9" horiz-adv-x="1097" d="M252 -25l-25 80q330 19 492 305q28 50 48.5 126.5t25.5 144.5q-152 -94 -310 -94q-171 0 -285 114.5t-114 311.5q0 109 37.5 200t99.5 150t141 91t164 32q88 0 168.5 -36t147.5 -106.5t107 -188.5t40 -269q0 -183 -57 -343.5t-155 -273.5t-234.5 -178.5t-290.5 -65.5z M799 737q2 29 2 78q-3 228 -58 346q-76 182 -225 182q-98 0 -171 -95t-73 -247q0 -168 74 -258t197 -90q117 0 254 84z" />
<glyph unicode=":" horiz-adv-x="516" d="M373 88q0 -50 -34 -84.5t-83 -34.5t-82 34.5t-33 84.5t33 86.5t82 36.5t83 -36.5t34 -86.5zM373 840q0 -48 -34 -83.5t-83 -35.5t-82 35.5t-33 83.5q0 50 33 85.5t82 35.5t83 -35.5t34 -85.5z" />
<glyph unicode=";" horiz-adv-x="516" d="M373 840q0 -48 -34 -83.5t-83 -35.5t-82 35.5t-33 83.5q0 50 33 85.5t82 35.5t83 -35.5t34 -85.5zM160 -291l-49 51q52 43 85 103.5t33 107.5q0 38 -26 67t-72 38l-6 16q6 53 43 86t86 33q50 0 90.5 -39.5t40.5 -103.5q0 -85 -66.5 -183t-158.5 -176z" />
<glyph unicode="&#x3c;" horiz-adv-x="1116" d="M981 96l-846 412v115l846 411v-133l-690 -338l690 -334v-133z" />
<glyph unicode="=" horiz-adv-x="1116" d="M969 651h-822v119h822v-119zM969 360h-822v119h822v-119z" />
<glyph unicode="&#x3e;" horiz-adv-x="1116" d="M983 508l-846 -412v133l688 334l-688 338v133l846 -411v-115z" />
<glyph unicode="?" horiz-adv-x="921" d="M801 1157q0 -48 -11 -94t-33.5 -88.5t-45.5 -77.5t-58.5 -74.5t-60.5 -65t-64 -63t-57 -55.5l-18 -246h-88l-9 363q74 57 131 123q56 58 92.5 124.5t36.5 153.5q0 123 -63.5 191.5t-159.5 68.5q-41 0 -83 -18t-75.5 -46t-57.5 -54t-40 -50l-90 129q187 152 381 152 q51 0 102.5 -15t100.5 -46t86.5 -74t60.5 -105t23 -133zM524 88q0 -50 -33 -84.5t-83 -34.5q-47 0 -81 35t-34 84q0 50 34 86.5t81 36.5q50 0 83 -36t33 -87z" />
<glyph unicode="@" horiz-adv-x="2109" d="M1534 -178q-252 -129 -516 -129q-167 0 -307.5 43t-239 117.5t-168 175t-102.5 215t-33 237.5q0 116 30 232t87 223.5t144.5 200.5t196.5 162.5t250 109t298 39.5q123 0 236 -30.5t209 -92t167 -147t111 -202.5t40 -253q0 -168 -64 -319.5t-174 -244.5t-235 -93 q-50 0 -94 18t-79.5 36.5t-65.5 18.5q-27 0 -70.5 -16.5t-100 -33.5t-112.5 -17q-158 0 -249 101t-91 267q0 126 44.5 239t120 193.5t179 127.5t217.5 47q123 0 230 -43l141 28l-148 -686q-10 -65 -10 -96q0 -38 30.5 -57t74.5 -19q51 0 106.5 37.5t105 106t81.5 180.5 t32 245q0 123 -46.5 231.5t-129 187.5t-202.5 125t-261 46q-146 0 -276.5 -47t-228.5 -129.5t-169.5 -191.5t-108 -237t-36.5 -261q0 -194 91 -343.5t251 -229.5t363 -80t442 104zM1335 891q-74 49 -172 49q-102 0 -188.5 -66t-137.5 -181.5t-51 -252.5q0 -128 66 -194 q57 -51 147 -51q56 0 114 22.5t89 48.5z" />
<glyph unicode="A" horiz-adv-x="1196" d="M791 592l-209 631l-203 -631h412zM1190 0h-199l-160 473h-487l-151 -473h-187l414 1120q50 119 42.5 188t-89.5 85v18h317z" />
<glyph unicode="B" horiz-adv-x="1241" d="M356 811h256q111 0 186.5 70t75.5 194q0 107 -74.5 164t-199.5 57h-244v-485zM356 115h260q158 0 243 79.5t85 227.5q0 129 -83 201.5t-214 72.5h-291v-581zM51 1411h621q97 0 173 -26.5t121.5 -72t69 -100.5t23.5 -116q0 -108 -66 -198.5t-182 -121.5q324 -81 324 -373 q0 -75 -31 -148t-88 -130q-61 -58 -148.5 -91.5t-185.5 -33.5h-504v1128q0 59 -1.5 88.5t-10 66t-25.5 58.5q-14 20 -39.5 35.5t-50.5 16.5v18z" />
<glyph unicode="C" horiz-adv-x="1269" d="M1182 1321l-78 -176q-47 65 -146.5 123.5t-195.5 58.5q-201 0 -333 -169.5t-132 -442.5q0 -141 40.5 -260.5t108 -199t156 -123.5t184.5 -44q97 0 197 35.5t184 105.5v-168q-159 -98 -399 -98q-141 0 -263 50t-212.5 142.5t-142.5 233t-52 311.5q0 213 80 382 t234.5 267.5t357.5 98.5q208 0 412 -127z" />
<glyph unicode="D" horiz-adv-x="1355" d="M356 1296v-1181h195q246 0 381 170q131 161 131 420q0 260 -131 421q-135 170 -381 170h-195zM51 1411h506q130 0 248.5 -37.5t206.5 -109.5q114 -97 178.5 -244.5t64.5 -314.5q0 -166 -64.5 -313.5t-178.5 -244.5q-88 -72 -206.5 -109.5t-248.5 -37.5h-379v1128 q0 59 -1.5 88.5t-10 66t-25.5 58.5q-14 20 -39.5 35.5t-50.5 16.5v18z" />
<glyph unicode="E" horiz-adv-x="1118" d="M1012 119v-119h-834v1128q0 59 -1.5 88.5t-10 66t-25.5 58.5q-14 20 -39.5 35.5t-50.5 16.5v18h942v-119h-637v-506h543v-120h-543v-547h656z" />
<glyph unicode="F" horiz-adv-x="1040" d="M993 1411v-119h-637v-506h543v-120h-543v-666h-178v1128q0 59 -1.5 88.5t-10 66t-25.5 58.5q-14 20 -39.5 35.5t-50.5 16.5v18h942z" />
<glyph unicode="G" horiz-adv-x="1404" d="M1247 666v-600q-223 -103 -426 -103q-334 0 -528.5 195t-194.5 540q0 160 47 297.5t132.5 238t212.5 157.5t280 57q208 0 412 -127l-78 -176q-48 66 -148 124t-200 58q-201 0 -330 -169t-129 -443q0 -287 147.5 -457t391.5 -170q61 0 125.5 15t105.5 40v523h180z" />
<glyph unicode="H" horiz-adv-x="1347" d="M1171 1411v-1411h-178v666h-637v-666h-178v1128q0 59 -1.5 88.5t-10 66t-25.5 58.5q-14 20 -39.5 35.5t-50.5 16.5v18h305v-625h637v625h178z" />
<glyph unicode="I" horiz-adv-x="563" d="M371 1411v-1411h-178v1128q0 59 -1 88.5t-8.5 66t-23.5 58.5q-15 21 -41.5 36t-52.5 16v18h305z" />
<glyph unicode="J" horiz-adv-x="567" d="M70 1411h305v-1249q0 -67 -13 -127.5t-30.5 -103t-51 -91t-57.5 -76.5t-67.5 -76.5t-65.5 -74.5l-70 59q43 57 70.5 101t54.5 106t39.5 136.5t12.5 166.5v946q0 59 -1 88.5t-8.5 66t-23.5 58.5q-14 21 -40.5 36t-53.5 16v18z" />
<glyph unicode="K" horiz-adv-x="1208" d="M356 1411v-1411h-178v1128q0 59 -1.5 88.5t-10 66t-25.5 58.5q-14 20 -39.5 35.5t-50.5 16.5v18h305zM1204 0h-231l-617 729q534 550 592 682h240l-627 -649z" />
<glyph unicode="L" horiz-adv-x="1026" d="M1012 119v-119h-834v1128q0 59 -1.5 88.5t-10 66t-25.5 58.5q-14 20 -39.5 35.5t-50.5 16.5v18h305v-1292h656z" />
<glyph unicode="M" horiz-adv-x="1708" d="M1608 0h-187l-141 1253l-350 -1253h-158l-344 1253l-141 -1253h-185l146 1128q19 142 -37 213q-14 21 -39 36t-51 16v18h405l312 -1116q12 -40 16 -82q3 29 18 80l310 1118h256z" />
<glyph unicode="N" horiz-adv-x="1327" d="M1151 1411v-1411h-178l-631 1249l8 -1249h-172v1128q0 59 -1.5 88.5t-10 66t-25.5 58.5q-14 20 -39.5 35.5t-50.5 16.5v18h373l528 -1055q2 -5 14.5 -30.5t20 -44.5t10.5 -31q-1 25 -2 97t-2 106l-14 958h172z" />
<glyph unicode="O" horiz-adv-x="1452" d="M1352 705q0 -168 -50 -309t-135 -235.5t-199 -147t-241 -52.5q-129 0 -243.5 52.5t-200 147t-135.5 235.5t-50 309q0 169 50 310t135.5 235t200 146t243.5 52q128 0 241.5 -52t198.5 -146t135 -235t50 -310zM1157 705q0 275 -119 448.5t-311 173.5q-128 0 -226 -79 t-151 -220.5t-53 -322.5q0 -274 118.5 -448.5t311.5 -174.5q127 0 225.5 80t151.5 221.5t53 321.5z" />
<glyph unicode="P" horiz-adv-x="1167" d="M356 0h-178v1128q0 59 -1.5 88.5t-10 66t-25.5 58.5q-14 20 -39.5 35.5t-50.5 16.5v18h543q212 0 330 -90q143 -107 143 -305q0 -169 -132 -283.5t-341 -114.5h-238v-618zM356 735h209q149 0 233.5 72.5t84.5 208.5t-84.5 208t-233.5 72h-209v-561z" />
<glyph unicode="Q" horiz-adv-x="1472" d="M1329 -285l-24 -110q-55 5 -94 10t-97 17t-101.5 28t-96.5 43t-93.5 61.5t-79.5 85.5t-67 113q-121 10 -226 66.5t-183.5 150.5t-123.5 229.5t-45 295.5q0 169 50 310t135.5 235t200 146t243.5 52q128 0 241.5 -52t198.5 -146t135 -235t50 -310q0 -281 -130.5 -473.5 t-336.5 -249.5q36 -65 91 -116t117 -81.5t121 -47.5t115 -22zM1157 705q0 275 -119 448.5t-311 173.5q-128 0 -226 -79t-151 -220.5t-53 -322.5q0 -274 118.5 -448.5t311.5 -174.5q127 0 225.5 80t151.5 221.5t53 321.5z" />
<glyph unicode="R" horiz-adv-x="1206" d="M889 1034q0 127 -74.5 194.5t-202.5 67.5h-256v-553h222q82 0 144 24.5t97.5 67t52.5 92.5t17 107zM51 1411h594q199 0 314.5 -94t115.5 -277q0 -152 -80 -249.5t-219 -135.5l445 -655h-213l-422 627h-230v-627h-178v1128q0 59 -1.5 88.5t-10 66t-25.5 58.5 q-14 20 -39.5 35.5t-50.5 16.5v18z" />
<glyph unicode="S" horiz-adv-x="1150" d="M999 1321l-75 -176q-66 79 -156 130.5t-195 51.5q-119 0 -197.5 -65t-78.5 -166q0 -46 20.5 -85.5t45.5 -66t78.5 -57t85.5 -45t100 -43.5q9 -4 14 -6q56 -23 86 -36.5t81 -39t79.5 -45.5t65 -52t56 -64t33 -74.5t13.5 -90.5q0 -129 -70.5 -229t-180 -150.5t-235.5 -50.5 q-124 0 -256.5 43.5t-226.5 108.5l78 176q79 -84 190.5 -144.5t223.5 -60.5q127 0 210.5 69t83.5 173q0 34 -11.5 65t-27.5 55t-47.5 49.5t-56 42t-70 39.5t-72.5 35.5t-79 34.5q-59 26 -97 44.5t-90.5 48t-86 59t-65.5 67.5t-47.5 84.5t-15.5 98.5q0 92 42 169t111 126.5 t155 76.5t176 27q189 0 409 -127z" />
<glyph unicode="T" horiz-adv-x="1112" d="M1069 1288h-424v-1288h-178v1288h-424v123h1026v-123z" />
<glyph unicode="U" horiz-adv-x="1370" d="M1192 1411v-891q0 -140 -39 -248.5t-108 -175.5t-159.5 -101t-197.5 -34q-106 0 -196.5 33t-161.5 98t-111.5 172t-40.5 246v618q0 59 -1.5 88.5t-10.5 66t-27 58.5q-13 20 -39 35t-49 17v18h305v-911q0 -105 28.5 -184.5t79 -125.5t112.5 -69t135 -23q168 0 254 115.5 t86 314.5v883h141z" />
<glyph unicode="V" horiz-adv-x="1193" d="M1190 1411l-522 -1411h-164l-498 1411h189l423 -1202q27 77 75.5 214.5t76.5 217.5t68 195t63 189t47 155t36.5 137.5t14.5 93.5h191z" />
<glyph unicode="W" horiz-adv-x="1835" d="M1796 1411l-420 -1411h-178l-256 993q-14 47 -18 88q0 -9 -2.5 -23.5t-6 -34t-4.5 -28.5l-268 -995h-176l-424 1411h186l334 -1110q18 -59 21 -94q5 47 18 92l272 1112h140l289 -1112q18 -61 18 -92q2 24 18 94l189 725q10 38 28 108t24 93.5t15 64.5t12.5 66.5t4.5 52.5 h184z" />
<glyph unicode="X" horiz-adv-x="1179" d="M1182 1411l-502 -672l494 -739h-218l-385 573q-112 -145 -228 -324.5t-140 -248.5h-201l494 690l-478 721h215l375 -559q125 167 236 330.5t133 228.5h205z" />
<glyph unicode="Y" horiz-adv-x="1099" d="M1100 1411l-461 -776v-635h-176v635l-463 776h207l381 -639q98 160 196.5 360t106.5 279h209z" />
<glyph unicode="Z" horiz-adv-x="1093" d="M1016 1339l-737 -1220h733v-119h-957v86l725 1206h-708l16 119h928v-72z" />
<glyph unicode="[" horiz-adv-x="784" d="M606 -508h-383v2054h383v-102h-209v-1847h209v-105z" />
<glyph unicode="\" horiz-adv-x="641" d="M594 -174h-119l-469 1747h121z" />
<glyph unicode="]" horiz-adv-x="784" d="M563 -508h-381v105h207v1847h-207v102h381v-2054z" />
<glyph unicode="^" horiz-adv-x="841" d="M784 991h-106l-258 389l-256 -389h-107l295 557h137z" />
<glyph unicode="_" horiz-adv-x="962" d="M963 -285h-963v119h963v-119z" />
<glyph unicode="`" d="M430 1190h-94l-336 346h195z" />
<glyph unicode="a" horiz-adv-x="1177" d="M1014 1061v-1061h-29q-54 31 -98 31q-33 0 -80 -17t-106.5 -34t-122.5 -17q-234 0 -367 166q-119 149 -119 379q0 295 221 463q126 100 303 100q124 0 248 -45zM840 901q-96 57 -205 57q-71 0 -133.5 -27t-113 -79t-80 -137t-29.5 -193q0 -262 145 -377q75 -63 184 -63 q68 0 131.5 27.5t100.5 58.5v733z" />
<glyph unicode="b" horiz-adv-x="1189" d="M338 1571v-567q139 71 278 71q248 0 371 -178q105 -154 105 -387q0 -215 -101 -358q-60 -87 -155.5 -137t-219.5 -50q-67 0 -130.5 16.5t-113 33t-83.5 16.5q-52 0 -96 -31h-27v1571h172zM338 162q33 -27 98 -51.5t131 -24.5q152 0 238 102q102 116 102 322 q0 218 -83.5 335.5t-235.5 117.5q-110 0 -250 -80v-721z" />
<glyph unicode="c" horiz-adv-x="1042" d="M987 94q-50 -36 -93.5 -59.5t-122.5 -44.5t-169 -21q-223 0 -366.5 149.5t-143.5 385.5q0 248 145.5 409.5t364.5 161.5q180 0 344 -96l-69 -154q-48 56 -122 99t-155 43q-125 0 -222 -118t-97 -292q0 -217 107.5 -343t264.5 -126q147 0 287 96z" />
<glyph unicode="d" horiz-adv-x="1187" d="M848 160v766q-98 39 -189 39q-78 0 -145.5 -28t-120.5 -82.5t-83.5 -143t-30.5 -201.5q0 -79 21.5 -153t63.5 -136t113 -99.5t160 -37.5q65 0 120.5 23.5t90.5 52.5zM1022 1571v-1571h-29q-47 31 -94 31q-35 0 -84 -16.5t-111 -33t-129 -16.5q-126 0 -222.5 50 t-157.5 137q-103 146 -103 356q0 298 221 463q134 104 322 104q109 0 213 -37v533h174z" />
<glyph unicode="e" horiz-adv-x="1118" d="M1012 555l-738 -23q0 -202 105.5 -323t269.5 -121q140 0 285 96l47 -90q-170 -127 -387 -127q-218 0 -360 158.5t-142 394.5q0 237 142.5 396t355.5 159q86 0 162 -29t135.5 -83t94 -140.5t34.5 -193.5q0 -34 -4 -74zM827 662q2 16 2 45q0 122 -68 192t-165 70 q-129 0 -217 -89t-100 -239z" />
<glyph unicode="f" horiz-adv-x="651" d="M772 1571l-55 -148q-130 68 -209 68q-86 0 -128 -80.5t-42 -257.5v-104h289v-117h-289v-932h-172v1124q0 203 55 303q101 177 338 177q105 0 213 -33z" />
<glyph unicode="g" horiz-adv-x="1087" d="M1067 1016q-38 -26 -103 -45.5t-120 -22.5q43 -41 74.5 -111t31.5 -157q0 -164 -117.5 -277.5t-297.5 -113.5q-25 0 -51 3.5t-41.5 7t-35 9t-24.5 6.5q-84 -61 -84 -118q0 -56 63 -78q18 -5 40.5 -9t53 -6t53 -3.5t64.5 -3.5t64 -3q58 -3 105 -9.5t100 -19.5t92 -35.5 t72 -54.5t50 -79.5t17 -108.5q0 -130 -106 -227q-76 -69 -183.5 -104.5t-226.5 -35.5q-231 0 -363.5 75t-132.5 188q0 73 56 139t159 110h27q-74 -109 -74 -196q0 -96 85.5 -153.5t244.5 -57.5q84 0 161 24.5t131 78t54 124.5q0 52 -25 87.5t-73 54t-99.5 26t-123.5 10.5 q-10 0 -52.5 2t-57 3t-50.5 3.5t-55 5.5t-47 8t-49.5 12t-41.5 16q-48 22 -72 58.5t-24 78.5q0 63 39.5 119.5t128.5 119.5q-184 135 -184 324q0 166 118 279.5t298 113.5q106 0 184 -41q93 7 178 43t119 70zM776 682q0 121 -65.5 205t-171.5 84q-105 0 -170.5 -84.5 t-65.5 -204.5q0 -122 65.5 -205.5t170.5 -83.5q106 0 171.5 83.5t65.5 205.5z" />
<glyph unicode="h" horiz-adv-x="1185" d="M1034 0h-174v586q0 172 -51 258q-35 59 -91.5 90t-125.5 31q-127 0 -254 -84v-881h-172v1571h172v-565q146 69 280 69q114 0 204 -45.5t143 -128.5q69 -110 69 -291v-610z" />
<glyph unicode="i" d="M356 1049v-1049h-172v1049h172zM385 1364q0 -48 -33.5 -83.5t-83.5 -35.5q-47 0 -80.5 35.5t-33.5 83.5q0 51 33.5 87t80.5 36q50 0 83.5 -35.5t33.5 -87.5z" />
<glyph unicode="j" d="M356 1049v-1055q0 -67 -14 -123t-45 -105.5t-55.5 -81t-72 -81.5t-67.5 -74l-73 59q74 108 98 158q57 118 57 272v1031h172zM385 1364q0 -48 -33.5 -83.5t-83.5 -35.5q-47 0 -80.5 35.5t-33.5 83.5q0 51 33.5 87t80.5 36q50 0 83.5 -35.5t33.5 -87.5z" />
<glyph unicode="k" horiz-adv-x="1036" d="M166 1571h172v-1571h-172v1571zM782 1049h217l-473 -455l531 -594h-230l-489 549l101 101t92 92.5t72 74t66 71t46.5 56.5t41.5 57t25 48z" />
<glyph unicode="l" d="M356 1571v-1571h-172v1571h172z" />
<glyph unicode="m" horiz-adv-x="1755" d="M1608 0h-172v582q0 180 -45 258q-31 59 -89.5 92t-121.5 33q-116 0 -240 -84q15 -35 22 -80t8 -79.5t1 -107.5v-614h-172v674q0 121 -23 170q-32 59 -83.5 90t-112.5 31q-124 0 -244 -78v-887h-170v1049h27q63 -31 108 -31q36 0 131 28.5t178 28.5q168 0 273 -100 q165 100 331 100q229 0 332 -174q62 -105 62 -289v-612z" />
<glyph unicode="n" horiz-adv-x="1177" d="M1026 0h-174v586q0 177 -51 258q-33 59 -90 90t-125 31q-121 0 -248 -78v-887h-172v1049h27q63 -31 106 -31q36 0 132 28.5t179 28.5q238 0 342 -153q74 -113 74 -306v-616z" />
<glyph unicode="o" horiz-adv-x="1204" d="M1110 518q0 -120 -39.5 -224t-107.5 -177t-161.5 -114.5t-197.5 -41.5q-142 0 -258.5 70.5t-185 198.5t-68.5 288q0 240 148 397.5t364 157.5q213 0 359.5 -157.5t146.5 -397.5zM926 518q0 189 -93 318t-229 129q-139 0 -232 -128.5t-93 -318.5q0 -188 92 -317t233 -129 q136 0 229 129.5t93 316.5z" />
<glyph unicode="p" horiz-adv-x="1193" d="M338 881v-725q121 -84 254 -84q152 0 237.5 117t85.5 335q0 122 -38 220.5t-116.5 159.5t-185.5 61q-70 0 -135.5 -27t-101.5 -57zM166 1049h27q63 -31 118 -31q36 0 126 28.5t173 28.5q107 0 200 -46.5t155 -125.5q131 -166 131 -393q0 -84 -19 -163t-59 -149.5 t-96.5 -123t-136 -83t-173.5 -30.5q-123 0 -274 72v-570h-172v1586z" />
<glyph unicode="q" horiz-adv-x="1187" d="M1022 1049v-1586h-174v578q-115 -78 -264 -78q-206 0 -355 146q-137 149 -137 409q0 152 67.5 278.5t186 200.5t262.5 74q84 0 184.5 -26.5t116.5 -26.5q50 0 84 31h29zM848 279v622q-102 57 -209 57q-71 0 -135 -29t-114.5 -83t-80.5 -141t-30 -195q0 -63 13 -123 t41.5 -115t70 -96t101.5 -65.5t132 -24.5q109 0 162 59q49 49 49 134z" />
<glyph unicode="r" horiz-adv-x="780" d="M782 1049l-59 -144q-101 43 -180 43q-95 0 -205 -61v-887h-172v1049h27q53 -31 106 -31q34 0 136 28.5t177 28.5t170 -26z" />
<glyph unicode="s" horiz-adv-x="989" d="M836 977l-72 -152q-131 142 -283 142q-89 0 -149 -46.5t-60 -115.5q0 -31 15.5 -58t37.5 -46t61 -38.5t70.5 -32t82.5 -30.5q149 -60 202 -91q141 -94 146 -222q0 -99 -58.5 -174.5t-149 -113.5t-194.5 -38q-100 0 -211 35t-192 84l72 149q67 -65 155.5 -112t175.5 -47 q96 0 161 47.5t65 115.5q0 20 -5 38.5t-19 35t-25.5 29.5t-37.5 28t-40 23.5t-49 23t-49.5 20.5t-53.5 22q-58 23 -98 41t-89 47.5t-78.5 60t-50 73.5t-20.5 93q0 91 58 162t148.5 107t193.5 36q164 0 340 -96z" />
<glyph unicode="t" horiz-adv-x="706" d="M688 82q-70 -44 -159.5 -76.5t-163.5 -32.5q-97 0 -150 62q-49 58 -49 176v1135l172 45v-342h289v-117h-289v-721q0 -107 100 -107q67 0 209 66z" />
<glyph unicode="u" horiz-adv-x="1177" d="M1012 1049v-1049h-27q-66 31 -106 31q-37 0 -133 -30t-179 -30q-235 0 -344 156q-71 108 -71 305v617h174v-586q0 -178 49 -258q71 -123 217 -123q125 0 246 80v887h174z" />
<glyph unicode="v" horiz-adv-x="1050" d="M563 213l182 455q56 141 77 219t34 162h176l-444 -1049h-127l-443 1049h195z" />
<glyph unicode="w" horiz-adv-x="1519" d="M1483 1049l-379 -1049h-129l-219 762l-219 -762h-129l-369 1049h188l279 -803l217 803h127l223 -816l150 435q35 102 54 176t23.5 110.5t8.5 94.5h174z" />
<glyph unicode="x" horiz-adv-x="989" d="M938 1049l-360 -476l393 -573h-205l-297 428q-219 -275 -272 -428h-177l383 522l-354 527h205l258 -381q117 152 173 234.5t77 146.5h176z" />
<glyph unicode="y" horiz-adv-x="1038" d="M1020 1049l-436 -1049q-33 -77 -55 -125t-62 -127t-86.5 -151t-99.5 -136l-140 101q125 109 193 207t127 231l-443 1049h195l344 -836l180 455q90 236 109 381h174z" />
<glyph unicode="z" horiz-adv-x="980" d="M881 965l-584 -848h580v-117h-803v92l577 840h-549l27 117h752v-84z" />
<glyph unicode="{" horiz-adv-x="901" d="M723 -403v-105h-111q-134 0 -209 72.5t-75 208.5v465q0 118 -41 187t-115 77l-51 6v20l51 7q74 9 115 78.5t41 187.5v465q0 138 75.5 209t210.5 71h109v-102h-76q-69 0 -107 -54t-38 -153v-438q0 -146 -41 -209.5t-150 -69.5q110 -9 150.5 -72t40.5 -208v-443 q0 -97 37.5 -148.5t107.5 -51.5h76z" />
<glyph unicode="|" horiz-adv-x="489" d="M307 -543h-123v2136h123v-2136z" />
<glyph unicode="}" horiz-adv-x="901" d="M780 528v-20l-49 -6q-74 -8 -116 -77t-42 -187v-465q0 -137 -74.5 -209t-209.5 -72h-109v105h72q145 0 145 200v443q0 145 42 208t153 72q-111 6 -153 70t-42 209v438q0 101 -37 154t-108 53h-72v102h107q136 0 211 -70.5t75 -209.5v-465q0 -118 42 -187.5t116 -78.5z " />
<glyph unicode="~" horiz-adv-x="1116" d="M958 670l66 -97q-155 -129 -289 -129q-72 0 -190 58q-120 59 -170 59q-93 0 -217 -98l-64 94q70 63 145 97t140 34q38 0 78.5 -10.5t66 -21.5t64.5 -31q102 -54 151 -54q103 0 219 99z" />
<glyph unicode="&#xa1;" horiz-adv-x="534" d="M311 651l54 -1091h-197l55 1091h88zM383 956q0 -48 -34 -84t-83 -36t-82.5 36t-33.5 84q0 51 33 85t83 34t83.5 -34t33.5 -85z" />
<glyph unicode="&#xa2;" horiz-adv-x="999" d="M885 1018l-58 -125q-32 38 -106 81.5t-148 43.5q-102 0 -178 -97t-76 -237q0 -101 34 -187.5t102 -141t157 -54.5q115 0 228 78l37 -74q-120 -95 -281 -102v-172h-109v178q-154 27 -250 143.5t-96 290.5q0 172 96 296.5t250 158.5v178h109v-166q71 -1 154 -30t135 -62z " />
<glyph unicode="&#xa3;" horiz-adv-x="1105" d="M987 1300l-143 -88q-28 54 -72.5 87.5t-101.5 27.5q-68 -6 -107 -81.5t-51 -231.5l-12 -232h377l-3 -98h-376l-9 -213q-3 -79 -41.5 -156t-87.5 -125l9 -10q87 11 170 0.5t139 -27.5t105 -33t67 -16q21 0 41 13t38.5 37.5t29.5 42t26 45.5l74 -39q-52 -133 -109.5 -180.5 t-140.5 -47.5q-78 0 -200 31t-328 100l-127 -112l-56 55q51 53 79.5 87.5t64.5 91t55 123t25 147.5l8 186h-209v98h207l12 236q5 90 33.5 163t70 119.5t95 78t104 44.5t100.5 13q70 0 136.5 -38.5t107.5 -97.5z" />
<glyph unicode="&#xa5;" horiz-adv-x="1087" d="M1075 1411l-389 -670h258v-104h-319v-174h319v-105h-319v-358h-172v358h-308v105h308v174h-308v104h248l-379 670h203l356 -633q91 146 185 348t104 285h213z" />
<glyph unicode="&#xa6;" horiz-adv-x="489" d="M307 975h-123v618h123v-618zM307 -20h-123v618h123v-618z" />
<glyph unicode="&#xa7;" horiz-adv-x="1015" d="M817 1384l-100 -170q-41 46 -97.5 79.5t-113.5 33.5q-80 0 -122 -54t-42 -126q0 -70 54 -121.5t208 -128.5q78 -38 127.5 -68.5t96 -72t68.5 -91t22 -110.5q0 -39 -10.5 -78t-33.5 -80.5t-66 -80.5t-103 -68q73 -45 111 -113.5t38 -148.5q0 -71 -31 -137.5t-85.5 -117.5 t-136 -82t-175.5 -32q-76 0 -162 17.5t-137 41.5l100 172q94 -112 226 -112q92 0 153.5 61.5t61.5 151.5q0 126 -224 246q-65 34 -104 55.5t-84 50.5t-69.5 54t-47.5 57.5t-32 69.5t-9 81q0 90 58 167t155 126q-149 109 -149 268q0 57 24.5 113t70.5 104t121.5 77.5 t168.5 29.5q144 0 270 -64zM598 317q77 20 113.5 70t36.5 107q0 68 -38.5 113.5t-109.5 84.5q-110 63 -180 101q-77 -20 -114.5 -71t-37.5 -106q0 -67 43 -118t105 -84q152 -82 182 -97z" />
<glyph unicode="&#xa8;" d="M213 1319q0 -45 -31.5 -78t-77.5 -33q-42 0 -73 33t-31 78q0 46 30.5 79.5t73.5 33.5q47 0 78 -33t31 -80zM541 1319q0 -45 -31 -78t-76 -33t-75.5 33t-30.5 78q0 46 30.5 79.5t75.5 33.5t76 -33.5t31 -79.5z" />
<glyph unicode="&#xa9;" horiz-adv-x="1685" d="M1579 705q0 -148 -58.5 -284.5t-157 -235t-235.5 -157.5t-286 -59q-148 0 -284 59t-234 157.5t-156.5 235t-58.5 284.5q0 200 98.5 369t267.5 267.5t367 98.5q200 0 369.5 -98.5t268.5 -267.5t99 -369zM1444 705q0 167 -80 307.5t-218.5 221.5t-303.5 81t-303 -81 t-217.5 -221.5t-79.5 -307.5t79.5 -307.5t217.5 -222t303 -81.5t303.5 81.5t218.5 222t80 307.5zM1108 1069l-45 -117q-33 39 -92 70t-119 31q-106 0 -178 -95t-72 -247q0 -157 79.5 -253t192.5 -96q121 0 230 89v-115q-92 -60 -240 -60q-174 0 -289.5 114.5t-115.5 309.5 q0 189 110.5 314t282.5 125q141 0 256 -70z" />
<glyph unicode="&#xaa;" horiz-adv-x="995" d="M834 1456v-780h-19q-52 22 -82 22q-28 0 -104.5 -25.5t-141.5 -25.5q-111 0 -195 48t-132 128q-58 101 -58 228q0 218 170 340q109 75 244 75q72 0 199 -34zM676 1333q-77 41 -154 41q-105 0 -178.5 -80.5t-73.5 -230.5q0 -198 103 -277q64 -43 137 -43q88 0 166 62v528z " />
<glyph unicode="&#xab;" horiz-adv-x="1150" d="M999 225l-81 -78l-410 418l410 420l81 -78l-284 -342zM584 225l-84 -78l-408 418l408 420l84 -78l-285 -342z" />
<glyph unicode="&#xac;" horiz-adv-x="1116" d="M969 358h-119v291h-703v119h822v-410z" />
<glyph unicode="&#xad;" horiz-adv-x="620" d="M545 506h-469v119h469v-119z" />
<glyph unicode="&#xae;" horiz-adv-x="1685" d="M1579 705q0 -148 -58.5 -284.5t-157 -235t-235.5 -157.5t-286 -59q-148 0 -284 59t-234 157.5t-156.5 235t-58.5 284.5q0 200 98.5 369t267.5 267.5t367 98.5q200 0 369.5 -98.5t268.5 -267.5t99 -369zM1444 705q0 167 -80 307.5t-218.5 221.5t-303.5 81t-303 -81 t-217.5 -221.5t-79.5 -307.5t79.5 -307.5t217.5 -222t303 -81.5t303.5 81.5t218.5 222t80 307.5zM1198 297h-154l-221 358h-123v-358h-131v821h303q120 0 190.5 -55t70.5 -164q0 -87 -46.5 -145t-125.5 -82zM700 737h127q88 0 129 46t41 112q0 70 -38.5 105.5t-110.5 35.5 h-148v-299z" />
<glyph unicode="&#xaf;" d="M561 1249h-581v119h581v-119z" />
<glyph unicode="&#xb0;" horiz-adv-x="768" d="M678 1196q0 -121 -86.5 -207t-208.5 -86t-208.5 86t-86.5 207q0 122 87 208.5t208 86.5t208 -86.5t87 -208.5zM545 1196q0 69 -47.5 118.5t-114.5 49.5q-66 0 -114 -49.5t-48 -118.5q0 -68 48 -118t114 -50q67 0 114.5 50t47.5 118z" />
<glyph unicode="&#xb1;" horiz-adv-x="1116" d="M969 604h-351v-350h-120v350h-351v117h351v354h120v-354h351v-117zM969 66h-822v116h822v-116z" />
<glyph unicode="&#xb2;" horiz-adv-x="821" d="M696 680v-113h-577v88l180 162q120 105 179 183.5t59 150.5q0 83 -44.5 135.5t-119.5 52.5q-100 0 -199 -82l-55 64q146 115 293 115q118 0 197 -70t79 -182q0 -55 -21.5 -107.5t-64 -101.5t-69 -74.5t-72.5 -64.5l-185 -156h420z" />
<glyph unicode="&#xb3;" horiz-adv-x="753" d="M588 1239q0 -121 -125 -182q78 -19 127 -82.5t49 -149.5q0 -115 -100 -195.5t-230 -80.5q-105 0 -217 61l51 88q97 -65 191 -65q65 0 112.5 48t47.5 122q0 85 -47 132.5t-121 47.5h-72v90q87 3 139.5 43t52.5 113q0 51 -33.5 81.5t-86.5 30.5q-79 0 -176 -63l-44 63 q133 95 246 95q104 0 170 -54.5t66 -142.5z" />
<glyph unicode="&#xb4;" d="M561 1536l-336 -346h-94l236 346h194z" />
<glyph unicode="&#xb5;" horiz-adv-x="1230" d="M1047 1049v-1049h-27q-66 31 -109 31q-37 0 -132 -30t-177 -30q-149 0 -246 60v-566h-170v1584h170v-586q0 -173 52 -258q74 -123 219 -123q121 0 245 80v887h175z" />
<glyph unicode="&#xb6;" horiz-adv-x="1171" d="M1053 1411v-18q-25 -1 -50.5 -16.5t-39.5 -35.5q-17 -22 -25.5 -58.5t-10 -66t-1.5 -88.5v-1071q0 -234 -123 -348q-95 -92 -289 -92q-83 0 -186 25l-6 190q150 -94 256 -94q30 0 62.5 12t64 36.5t51.5 69.5t20 103v463q-75 -6 -100 -6q-111 0 -214.5 33.5t-186 94.5 t-132 156t-49.5 209q0 120 44 217t118.5 158.5t170 94t202.5 32.5h424zM776 530v770q-236 13 -359.5 -88.5t-123.5 -277.5q0 -103 39.5 -185.5t106 -132.5t154 -72.5t183.5 -13.5z" />
<glyph unicode="&#xb7;" horiz-adv-x="485" d="M358 565q0 -52 -32.5 -86.5t-83.5 -34.5q-48 0 -81.5 35t-33.5 86q0 50 34 85.5t81 35.5q50 0 83 -35.5t33 -85.5z" />
<glyph unicode="&#xb8;" d="M371 8l-72 -125q81 -16 123.5 -71.5t42.5 -122.5q0 -101 -70 -164.5t-180 -63.5q-91 0 -176 31v121q30 -26 75.5 -41.5t88.5 -15.5q54 0 85 30.5t31 79.5q0 52 -42 90.5t-123 42.5l120 209h97z" />
<glyph unicode="&#xb9;" horiz-adv-x="620" d="M399 573h-147l4 734l-180 -80v92l327 133z" />
<glyph unicode="&#xba;" horiz-adv-x="956" d="M856 1059q0 -179 -107.5 -295.5t-267.5 -116.5q-163 0 -271 116.5t-108 295.5q0 176 108 291.5t271 115.5q159 0 267 -115.5t108 -291.5zM686 1059q0 143 -57.5 229t-147.5 86q-95 0 -153 -85.5t-58 -229.5q0 -145 58.5 -232.5t152.5 -87.5q90 0 147.5 87.5t57.5 232.5z " />
<glyph unicode="&#xbb;" horiz-adv-x="1150" d="M643 565l-410 -418l-81 78l286 340l-286 342l81 78zM1061 565l-412 -418l-82 78l287 340l-287 342l82 78z" />
<glyph unicode="&#xbc;" horiz-adv-x="1660" d="M399 573h-147l4 734l-180 -80v92l327 133zM1556 236h-124v-236h-144v236h-446v92l461 542h129v-522h124v-112zM1288 348v359l-307 -359h307zM1231 1430l-799 -1450h-129l801 1450h127z" />
<glyph unicode="&#xbd;" horiz-adv-x="1679" d="M399 573h-147l4 734l-180 -80v92l327 133zM1190 1430l-799 -1450h-129l801 1450h127zM1556 113v-113h-575v88l180 162q119 106 178.5 185t59.5 149q0 85 -44.5 137.5t-119.5 52.5q-104 0 -199 -82l-55 62q147 116 293 116q116 0 196 -71t80 -183q0 -45 -17 -90.5 t-38.5 -78.5t-57.5 -71.5t-58 -58t-56 -47.5l-184 -157h417z" />
<glyph unicode="&#xbe;" horiz-adv-x="1630" d="M612 1239q0 -122 -131 -182q82 -19 133.5 -82.5t51.5 -149.5q0 -76 -49.5 -140t-129 -100t-168.5 -36q-110 0 -227 61l53 88q105 -65 201 -65q68 0 118 48t50 122q0 85 -49 132.5t-127 47.5h-76v90q91 3 147 43t56 113q0 50 -36 81t-91 31q-83 0 -188 -63l-44 63 q140 95 256 95q112 0 181 -54.5t69 -142.5zM1325 1430l-801 -1450h-127l801 1450h127zM1585 236h-125v-236h-145v236h-445v92l461 542h129v-522h125v-112zM1315 348v359l-307 -359h307z" />
<glyph unicode="&#xbf;" horiz-adv-x="894" d="M848 -334q-87 -69 -178 -110t-203 -41q-64 0 -129 24.5t-120.5 69.5t-90.5 118.5t-35 161.5q0 55 17.5 110.5t39.5 96.5t64 92.5t68 78.5t76.5 76t66.5 65l16 243h86l11 -360q-70 -62 -131 -123q-32 -38 -44.5 -54.5t-38 -56.5t-36.5 -81t-11 -87q0 -123 63.5 -191.5 t160.5 -68.5q54 0 110.5 32t90.5 66.5t57 67.5zM602 956q0 -48 -34 -84t-83 -36t-83.5 36t-34.5 84q0 51 34 85t84 34t83.5 -34t33.5 -85z" />
<glyph unicode="&#xc0;" horiz-adv-x="1196" d="M791 592l-209 631l-203 -631h412zM1190 0h-199l-160 473h-487l-151 -473h-187l414 1120q50 119 42.5 188t-89.5 85v18h317zM723 1538h-94l-336 346h194z" />
<glyph unicode="&#xc1;" horiz-adv-x="1196" d="M791 592l-209 631l-203 -631h412zM1190 0h-199l-160 473h-487l-151 -473h-187l414 1120q50 119 42.5 188t-89.5 85v18h317zM895 1884l-336 -346h-94l235 346h195z" />
<glyph unicode="&#xc2;" horiz-adv-x="1196" d="M791 592l-209 631l-203 -631h412zM1190 0h-199l-160 473h-487l-151 -473h-187l414 1120q50 119 42.5 188t-89.5 85v18h317zM848 1538h-94l-170 195l-172 -195h-95l218 346h98z" />
<glyph unicode="&#xc3;" horiz-adv-x="1196" d="M791 592l-209 631l-203 -631h412zM1190 0h-199l-160 473h-487l-151 -473h-187l414 1120q50 119 42.5 188t-89.5 85v18h317zM899 1759q-81 -182 -209 -182q-66 0 -137 49q-65 43 -111 43q-57 0 -104 -80l-70 21q78 182 209 182q36 0 67.5 -12.5t76.5 -40.5q63 -39 106 -39 q66 0 104 80z" />
<glyph unicode="&#xc4;" horiz-adv-x="1196" d="M791 592l-209 631l-203 -631h412zM1190 0h-199l-160 473h-487l-151 -473h-187l414 1120q50 119 42.5 188t-89.5 85v18h317zM526 1667q0 -45 -31 -78t-77 -33q-43 0 -74 33.5t-31 77.5q0 46 31 79.5t74 33.5q46 0 77 -33t31 -80zM854 1667q0 -45 -30.5 -78t-75.5 -33 t-76 33t-31 78q0 46 31 79.5t76 33.5t75.5 -33.5t30.5 -79.5z" />
<glyph unicode="&#xc5;" horiz-adv-x="1196" d="M791 592l-209 631l-203 -631h412zM1190 0h-199l-160 473h-487l-151 -473h-187l414 1120q50 119 42.5 188t-89.5 85v18h317zM377 1675q0 86 60.5 146.5t146.5 60.5t146.5 -60.5t60.5 -146.5t-60.5 -146.5t-146.5 -60.5t-146.5 60.5t-60.5 146.5zM485 1675q0 -41 29 -69.5 t70 -28.5t69.5 28.5t28.5 69.5t-28.5 70t-69.5 29t-70 -29t-29 -70z" />
<glyph unicode="&#xc6;" horiz-adv-x="1802" d="M1696 119v-119h-834v545h-448l-285 -545h-197l693 1214q38 79 18.5 125t-80.5 56v16h1114v-119h-637v-506h543v-120h-543v-547h656zM862 666v626h-59l-324 -626h383z" />
<glyph unicode="&#xc7;" horiz-adv-x="1269" d="M1167 229v-168q-159 -98 -399 -98h-8l-45 -80q81 -16 123.5 -71.5t42.5 -122.5q0 -101 -70 -164.5t-180 -63.5q-91 0 -176 31v121q30 -26 75 -41.5t88 -15.5q54 0 85.5 31t31.5 79q0 52 -42.5 90.5t-123.5 42.5l99 172q-123 16 -227 73t-180.5 148t-119.5 221.5 t-43 286.5q0 213 80 382t234.5 267.5t357.5 98.5q208 0 412 -127l-78 -176q-47 65 -146.5 123.5t-195.5 58.5q-201 0 -333 -169.5t-132 -442.5q0 -141 40.5 -260.5t108 -199t156 -123.5t184.5 -44q97 0 197 35.5t184 105.5z" />
<glyph unicode="&#xc8;" horiz-adv-x="1118" d="M1012 119v-119h-834v1128q0 59 -1.5 88.5t-10 66t-25.5 58.5q-14 20 -39.5 35.5t-50.5 16.5v18h942v-119h-637v-506h543v-120h-543v-547h656zM698 1538h-94l-336 346h195z" />
<glyph unicode="&#xc9;" horiz-adv-x="1118" d="M1012 119v-119h-834v1128q0 59 -1.5 88.5t-10 66t-25.5 58.5q-14 20 -39.5 35.5t-50.5 16.5v18h942v-119h-637v-506h543v-120h-543v-547h656zM868 1884l-336 -346h-94l236 346h194z" />
<glyph unicode="&#xca;" horiz-adv-x="1118" d="M1012 119v-119h-834v1128q0 59 -1.5 88.5t-10 66t-25.5 58.5q-14 20 -39.5 35.5t-50.5 16.5v18h942v-119h-637v-506h543v-120h-543v-547h656zM840 1538h-95l-170 195l-172 -195h-94l217 346h99z" />
<glyph unicode="&#xcb;" horiz-adv-x="1118" d="M1012 119v-119h-834v1128q0 59 -1.5 88.5t-10 66t-25.5 58.5q-14 20 -39.5 35.5t-50.5 16.5v18h942v-119h-637v-506h543v-120h-543v-547h656zM524 1667q0 -45 -31 -78t-77 -33q-43 0 -74 33.5t-31 77.5q0 46 31 79.5t74 33.5q46 0 77 -33t31 -80zM852 1667q0 -45 -31 -78 t-76 -33t-75.5 33t-30.5 78q0 46 30.5 79.5t75.5 33.5t76 -33.5t31 -79.5z" />
<glyph unicode="&#xcc;" horiz-adv-x="563" d="M371 1411v-1411h-178v1128q0 59 -1 88.5t-8.5 66t-23.5 58.5q-15 21 -41.5 36t-52.5 16v18h305zM438 1538h-94l-336 346h195z" />
<glyph unicode="&#xcd;" horiz-adv-x="563" d="M371 1411v-1411h-178v1128q0 59 -1 88.5t-8.5 66t-23.5 58.5q-15 21 -41.5 36t-52.5 16v18h305zM582 1884l-336 -346h-94l235 346h195z" />
<glyph unicode="&#xce;" horiz-adv-x="563" d="M371 1411v-1411h-178v1128q0 59 -1 88.5t-8.5 66t-23.5 58.5q-15 21 -41.5 36t-52.5 16v18h305zM569 1538h-94l-170 195l-172 -195h-94l217 346h98z" />
<glyph unicode="&#xcf;" horiz-adv-x="563" d="M371 1411v-1411h-178v1128q0 59 -1 88.5t-8.5 66t-23.5 58.5q-15 21 -41.5 36t-52.5 16v18h305zM252 1667q0 -45 -31.5 -78t-77.5 -33q-42 0 -73 33t-31 78q0 46 30.5 79.5t73.5 33.5q47 0 78 -33t31 -80zM580 1667q0 -45 -31 -78t-76 -33t-75.5 33t-30.5 78 q0 46 30.5 79.5t75.5 33.5t76 -33.5t31 -79.5z" />
<glyph unicode="&#xd0;" horiz-adv-x="1376" d="M72 1411h506q130 0 248 -37.5t206 -109.5q114 -97 179 -244.5t65 -314.5q0 -165 -65 -313t-179 -245q-88 -72 -206 -109.5t-248 -37.5h-379v670h-148v114h148v344q0 59 -1.5 88.5t-10 66t-25.5 58.5q-14 20 -39.5 35.5t-50.5 16.5v18zM788 670h-411v-555h201 q241 0 376 170q129 159 129 420q0 262 -129 421q-135 170 -376 170h-201v-512h411v-114z" />
<glyph unicode="&#xd1;" horiz-adv-x="1327" d="M1151 1411v-1411h-178l-631 1249l8 -1249h-172v1128q0 59 -1.5 88.5t-10 66t-25.5 58.5q-14 20 -39.5 35.5t-50.5 16.5v18h373l528 -1055q2 -5 14.5 -30.5t20 -44.5t10.5 -31q-1 25 -2 97t-2 106l-14 958h172zM981 1759q-81 -182 -209 -182q-66 0 -137 49q-65 43 -111 43 q-57 0 -104 -80l-70 21q78 182 209 182q36 0 66.5 -12.5t76.5 -40.5q63 -39 107 -39q66 0 104 80z" />
<glyph unicode="&#xd2;" horiz-adv-x="1452" d="M1352 705q0 -168 -50 -309t-135 -235.5t-199 -147t-241 -52.5q-129 0 -243.5 52.5t-200 147t-135.5 235.5t-50 309q0 169 50 310t135.5 235t200 146t243.5 52q128 0 241.5 -52t198.5 -146t135 -235t50 -310zM1157 705q0 275 -119 448.5t-311 173.5q-128 0 -226 -79 t-151 -220.5t-53 -322.5q0 -274 118.5 -448.5t311.5 -174.5q127 0 225.5 80t151.5 221.5t53 321.5zM887 1538h-94l-336 346h194z" />
<glyph unicode="&#xd3;" horiz-adv-x="1452" d="M1352 705q0 -168 -50 -309t-135 -235.5t-199 -147t-241 -52.5q-129 0 -243.5 52.5t-200 147t-135.5 235.5t-50 309q0 169 50 310t135.5 235t200 146t243.5 52q128 0 241.5 -52t198.5 -146t135 -235t50 -310zM1157 705q0 275 -119 448.5t-311 173.5q-128 0 -226 -79 t-151 -220.5t-53 -322.5q0 -274 118.5 -448.5t311.5 -174.5q127 0 225.5 80t151.5 221.5t53 321.5zM1030 1884l-336 -346h-94l236 346h194z" />
<glyph unicode="&#xd4;" horiz-adv-x="1452" d="M1352 705q0 -168 -50 -309t-135 -235.5t-199 -147t-241 -52.5q-129 0 -243.5 52.5t-200 147t-135.5 235.5t-50 309q0 169 50 310t135.5 235t200 146t243.5 52q128 0 241.5 -52t198.5 -146t135 -235t50 -310zM1157 705q0 275 -119 448.5t-311 173.5q-128 0 -226 -79 t-151 -220.5t-53 -322.5q0 -274 118.5 -448.5t311.5 -174.5q127 0 225.5 80t151.5 221.5t53 321.5zM993 1538h-94l-170 195l-172 -195h-94l217 346h98z" />
<glyph unicode="&#xd5;" horiz-adv-x="1452" d="M1352 705q0 -168 -50 -309t-135 -235.5t-199 -147t-241 -52.5q-129 0 -243.5 52.5t-200 147t-135.5 235.5t-50 309q0 169 50 310t135.5 235t200 146t243.5 52q128 0 241.5 -52t198.5 -146t135 -235t50 -310zM1157 705q0 275 -119 448.5t-311 173.5q-128 0 -226 -79 t-151 -220.5t-53 -322.5q0 -274 118.5 -448.5t311.5 -174.5q127 0 225.5 80t151.5 221.5t53 321.5zM1075 1759q-81 -182 -209 -182q-66 0 -137 49q-65 43 -111 43q-57 0 -104 -80l-70 21q78 182 209 182q36 0 67.5 -12.5t76.5 -40.5q63 -39 106 -39q67 0 105 80z" />
<glyph unicode="&#xd6;" horiz-adv-x="1452" d="M1352 705q0 -168 -50 -309t-135 -235.5t-199 -147t-241 -52.5q-129 0 -243.5 52.5t-200 147t-135.5 235.5t-50 309q0 169 50 310t135.5 235t200 146t243.5 52q128 0 241.5 -52t198.5 -146t135 -235t50 -310zM1157 705q0 275 -119 448.5t-311 173.5q-128 0 -226 -79 t-151 -220.5t-53 -322.5q0 -274 118.5 -448.5t311.5 -174.5q127 0 225.5 80t151.5 221.5t53 321.5zM670 1667q0 -45 -31.5 -78t-77.5 -33q-42 0 -73 33t-31 78q0 46 30.5 79.5t73.5 33.5q47 0 78 -33t31 -80zM997 1667q0 -45 -30.5 -78t-75.5 -33t-76 33t-31 78 q0 46 31 79.5t76 33.5t75.5 -33.5t30.5 -79.5z" />
<glyph unicode="&#xd7;" horiz-adv-x="1116" d="M901 272l-76 -84l-266 293l-268 -293l-78 84l268 291l-268 293l78 84l268 -291l266 291l76 -84l-266 -293z" />
<glyph unicode="&#xd8;" horiz-adv-x="1452" d="M1356 1489l-180 -250q176 -208 176 -534q0 -168 -50 -309t-135 -235.5t-199 -147t-241 -52.5q-213 0 -377 133l-131 -182h-133l186 260q-174 212 -174 533q0 169 50 310t135.5 235t200 146t243.5 52q207 0 369 -131l125 172h135zM442 221q114 -139 285 -139 q127 0 225.5 80t151.5 221.5t53 321.5q0 228 -86 391zM1008 1192q-116 135 -281 135q-128 0 -226 -79t-151 -220.5t-53 -322.5q0 -228 82 -386z" />
<glyph unicode="&#xd9;" horiz-adv-x="1370" d="M1192 1411v-891q0 -140 -39 -248.5t-108 -175.5t-159.5 -101t-197.5 -34q-106 0 -196.5 33t-161.5 98t-111.5 172t-40.5 246v618q0 59 -1.5 88.5t-10.5 66t-27 58.5q-13 20 -39 35t-49 17v18h305v-911q0 -105 28.5 -184.5t79 -125.5t112.5 -69t135 -23q168 0 254 115.5 t86 314.5v883h141zM838 1538h-95l-335 346h194z" />
<glyph unicode="&#xda;" horiz-adv-x="1370" d="M1192 1411v-891q0 -140 -39 -248.5t-108 -175.5t-159.5 -101t-197.5 -34q-106 0 -196.5 33t-161.5 98t-111.5 172t-40.5 246v618q0 59 -1.5 88.5t-10.5 66t-27 58.5q-13 20 -39 35t-49 17v18h305v-911q0 -105 28.5 -184.5t79 -125.5t112.5 -69t135 -23q168 0 254 115.5 t86 314.5v883h141zM1014 1884l-336 -346h-94l235 346h195z" />
<glyph unicode="&#xdb;" horiz-adv-x="1370" d="M1192 1411v-891q0 -140 -39 -248.5t-108 -175.5t-159.5 -101t-197.5 -34q-106 0 -196.5 33t-161.5 98t-111.5 172t-40.5 246v618q0 59 -1.5 88.5t-10.5 66t-27 58.5q-13 20 -39 35t-49 17v18h305v-911q0 -105 28.5 -184.5t79 -125.5t112.5 -69t135 -23q168 0 254 115.5 t86 314.5v883h141zM958 1538h-94l-170 195l-172 -195h-94l217 346h98z" />
<glyph unicode="&#xdc;" horiz-adv-x="1370" d="M1192 1411v-891q0 -140 -39 -248.5t-108 -175.5t-159.5 -101t-197.5 -34q-106 0 -196.5 33t-161.5 98t-111.5 172t-40.5 246v618q0 59 -1.5 88.5t-10.5 66t-27 58.5q-13 20 -39 35t-49 17v18h305v-911q0 -105 28.5 -184.5t79 -125.5t112.5 -69t135 -23q168 0 254 115.5 t86 314.5v883h141zM637 1667q0 -45 -31.5 -78t-77.5 -33q-42 0 -73 33t-31 78q0 46 30.5 79.5t73.5 33.5q47 0 78 -33t31 -80zM965 1667q0 -45 -31 -78t-76 -33t-75.5 33t-30.5 78q0 46 30.5 79.5t75.5 33.5t76 -33.5t31 -79.5z" />
<glyph unicode="&#xdd;" horiz-adv-x="1099" d="M1100 1411l-461 -776v-635h-176v635l-463 776h207l381 -639q98 160 196.5 360t106.5 279h209zM879 1845l-336 -346h-94l235 346h195z" />
<glyph unicode="&#xde;" horiz-adv-x="1167" d="M356 1411v-274h238q212 0 330 -90q143 -113 143 -306q0 -169 -132 -283t-341 -114h-238v-344h-178v1411h178zM356 461h209q149 0 233.5 72t84.5 208t-84.5 208.5t-233.5 72.5h-209v-561z" />
<glyph unicode="&#xdf;" horiz-adv-x="1167" d="M551 213q61 -66 112 -98.5t117 -32.5q75 0 121.5 40t46.5 109q0 54 -26.5 94.5t-68.5 66.5t-93.5 49t-102.5 49.5t-93 59t-68.5 85.5t-26.5 123q0 19 3.5 38t7 33.5t15 33t16.5 28.5t22 28.5t22.5 25t28 25.5t26.5 22.5t29.5 24.5t28.5 23q77 60 116 114.5t39 123.5 q0 71 -59 129.5t-168 58.5q-260 0 -260 -407v-1059h-170v1059q0 223 88 350q60 79 150.5 123.5t201.5 44.5q167 0 276 -80.5t109 -212.5q0 -43 -12.5 -81.5t-30.5 -66.5t-46.5 -55.5t-53.5 -46.5t-59 -42q-5 -3 -7 -4.5t-5.5 -4t-6.5 -4.5q-73 -50 -110 -93.5t-37 -103.5 q0 -42 26 -75t67.5 -55.5t91.5 -44.5t100.5 -49.5t92 -62.5t67.5 -92t26 -131q0 -131 -90 -215t-224 -84q-190 0 -327 111z" />
<glyph unicode="&#xe0;" horiz-adv-x="1177" d="M1014 1061v-1061h-29q-54 31 -98 31q-33 0 -80 -17t-106.5 -34t-122.5 -17q-234 0 -367 166q-119 149 -119 379q0 295 221 463q126 100 303 100q124 0 248 -45zM840 901q-96 57 -205 57q-71 0 -133.5 -27t-113 -79t-80 -137t-29.5 -193q0 -262 145 -377q75 -63 184 -63 q68 0 131.5 27.5t100.5 58.5v733zM758 1190h-94l-336 346h194z" />
<glyph unicode="&#xe1;" horiz-adv-x="1177" d="M1014 1061v-1061h-29q-54 31 -98 31q-33 0 -80 -17t-106.5 -34t-122.5 -17q-234 0 -367 166q-119 149 -119 379q0 295 221 463q126 100 303 100q124 0 248 -45zM840 901q-96 57 -205 57q-71 0 -133.5 -27t-113 -79t-80 -137t-29.5 -193q0 -262 145 -377q75 -63 184 -63 q68 0 131.5 27.5t100.5 58.5v733zM918 1536l-336 -346h-95l236 346h195z" />
<glyph unicode="&#xe2;" horiz-adv-x="1177" d="M1014 1061v-1061h-29q-54 31 -98 31q-33 0 -80 -17t-106.5 -34t-122.5 -17q-234 0 -367 166q-119 149 -119 379q0 295 221 463q126 100 303 100q124 0 248 -45zM840 901q-96 57 -205 57q-71 0 -133.5 -27t-113 -79t-80 -137t-29.5 -193q0 -262 145 -377q75 -63 184 -63 q68 0 131.5 27.5t100.5 58.5v733zM870 1190h-94l-170 194l-172 -194h-94l217 346h98z" />
<glyph unicode="&#xe3;" horiz-adv-x="1177" d="M1014 1061v-1061h-29q-54 31 -98 31q-33 0 -80 -17t-106.5 -34t-122.5 -17q-234 0 -367 166q-119 149 -119 379q0 295 221 463q126 100 303 100q124 0 248 -45zM840 901q-96 57 -205 57q-71 0 -133.5 -27t-113 -79t-80 -137t-29.5 -193q0 -262 145 -377q75 -63 184 -63 q68 0 131.5 27.5t100.5 58.5v733zM950 1411q-81 -182 -209 -182q-66 0 -137 49q-65 43 -110 43q-58 0 -105 -80l-70 21q78 182 209 182q36 0 67.5 -12.5t76.5 -40.5q63 -39 106 -39q67 0 105 80z" />
<glyph unicode="&#xe4;" horiz-adv-x="1177" d="M1014 1061v-1061h-29q-54 31 -98 31q-33 0 -80 -17t-106.5 -34t-122.5 -17q-234 0 -367 166q-119 149 -119 379q0 295 221 463q126 100 303 100q124 0 248 -45zM840 901q-96 57 -205 57q-71 0 -133.5 -27t-113 -79t-80 -137t-29.5 -193q0 -262 145 -377q75 -63 184 -63 q68 0 131.5 27.5t100.5 58.5v733zM557 1319q0 -45 -31 -78t-77 -33q-43 0 -74 33.5t-31 77.5q0 46 31 79.5t74 33.5q46 0 77 -33t31 -80zM885 1319q0 -45 -31 -78t-76 -33t-75.5 33t-30.5 78q0 46 30.5 79.5t75.5 33.5t76 -33.5t31 -79.5z" />
<glyph unicode="&#xe5;" horiz-adv-x="1177" d="M1014 1061v-1061h-29q-54 31 -98 31q-33 0 -80 -17t-106.5 -34t-122.5 -17q-234 0 -367 166q-119 149 -119 379q0 295 221 463q126 100 303 100q124 0 248 -45zM840 901q-96 57 -205 57q-71 0 -133.5 -27t-113 -79t-80 -137t-29.5 -193q0 -262 145 -377q75 -63 184 -63 q68 0 131.5 27.5t100.5 58.5v733zM403 1397q0 86 60.5 146.5t146.5 60.5t146.5 -60.5t60.5 -146.5t-60.5 -146.5t-146.5 -60.5t-146.5 60.5t-60.5 146.5zM512 1397q0 -41 28.5 -70t69.5 -29t70 29t29 70t-29 69.5t-70 28.5t-69.5 -28.5t-28.5 -69.5z" />
<glyph unicode="&#xe6;" horiz-adv-x="1843" d="M1706 94q-71 -59 -173 -96t-194 -37q-187 0 -329 115l8 -115l-160 64q-154 -56 -285 -56q-96 0 -184.5 36.5t-155.5 103.5q-141 154 -141 413q0 119 40.5 222t109 173t159.5 110t191 40q57 0 117.5 -12t82 -19.5t66.5 -23.5l160 63l-8 -110q37 31 71 51.5t98 39.5t138 19 q86 0 161.5 -29t134.5 -83t93.5 -140.5t34.5 -193.5q0 -10 -1 -37t-1 -37l-738 -23q0 -114 20 -188t66 -131q50 -61 126 -93t163 -32q141 0 283 96zM1554 662q2 16 2 45q0 122 -69.5 192t-167.5 70q-129 0 -217.5 -89t-100.5 -239zM848 174v690q-109 84 -234 84 q-165 0 -254 -131q-81 -126 -81 -295q0 -174 81 -303q91 -131 254 -131q132 0 234 86z" />
<glyph unicode="&#xe7;" horiz-adv-x="1042" d="M987 94q-50 -36 -93.5 -59.5t-122.5 -44.5t-169 -21l-49 -86q81 -16 123.5 -71.5t42.5 -122.5q0 -101 -70 -164.5t-180 -63.5q-91 0 -176 31v121q30 -26 75.5 -41.5t88.5 -15.5q54 0 85 30.5t31 79.5q0 52 -42 90.5t-123 42.5l102 178q-188 30 -303 172.5t-115 354.5 q0 248 145.5 409.5t364.5 161.5q180 0 344 -96l-69 -154q-48 56 -122 99t-155 43q-125 0 -222 -118t-97 -292q0 -217 107.5 -343t264.5 -126q147 0 287 96z" />
<glyph unicode="&#xe8;" horiz-adv-x="1118" d="M1012 555l-738 -23q0 -202 105.5 -323t269.5 -121q140 0 285 96l47 -90q-170 -127 -387 -127q-218 0 -360 158.5t-142 394.5q0 237 142.5 396t355.5 159q86 0 162 -29t135.5 -83t94 -140.5t34.5 -193.5q0 -34 -4 -74zM827 662q2 16 2 45q0 122 -68 192t-165 70 q-129 0 -217 -89t-100 -239zM762 1190h-94l-336 346h194z" />
<glyph unicode="&#xe9;" horiz-adv-x="1118" d="M1012 555l-738 -23q0 -202 105.5 -323t269.5 -121q140 0 285 96l47 -90q-170 -127 -387 -127q-218 0 -360 158.5t-142 394.5q0 237 142.5 396t355.5 159q86 0 162 -29t135.5 -83t94 -140.5t34.5 -193.5q0 -34 -4 -74zM827 662q2 16 2 45q0 122 -68 192t-165 70 q-129 0 -217 -89t-100 -239zM872 1536l-335 -346h-95l236 346h194z" />
<glyph unicode="&#xea;" horiz-adv-x="1118" d="M1012 555l-738 -23q0 -202 105.5 -323t269.5 -121q140 0 285 96l47 -90q-170 -127 -387 -127q-218 0 -360 158.5t-142 394.5q0 237 142.5 396t355.5 159q86 0 162 -29t135.5 -83t94 -140.5t34.5 -193.5q0 -34 -4 -74zM827 662q2 16 2 45q0 122 -68 192t-165 70 q-129 0 -217 -89t-100 -239zM862 1190h-94l-170 194l-172 -194h-94l217 346h98z" />
<glyph unicode="&#xeb;" horiz-adv-x="1118" d="M1012 555l-738 -23q0 -202 105.5 -323t269.5 -121q140 0 285 96l47 -90q-170 -127 -387 -127q-218 0 -360 158.5t-142 394.5q0 237 142.5 396t355.5 159q86 0 162 -29t135.5 -83t94 -140.5t34.5 -193.5q0 -34 -4 -74zM827 662q2 16 2 45q0 122 -68 192t-165 70 q-129 0 -217 -89t-100 -239zM537 1319q0 -45 -31.5 -78t-77.5 -33q-42 0 -73 33t-31 78q0 46 30.5 79.5t73.5 33.5q47 0 78 -33t31 -80zM864 1319q0 -45 -30.5 -78t-75.5 -33t-76 33t-31 78q0 46 31 79.5t76 33.5t75.5 -33.5t30.5 -79.5z" />
<glyph unicode="&#xec;" d="M356 1049v-1049h-172v1049h172zM430 1190h-94l-336 346h195z" />
<glyph unicode="&#xed;" d="M356 1049v-1049h-172v1049h172zM561 1536l-336 -346h-94l236 346h194z" />
<glyph unicode="&#xee;" d="M356 1049v-1049h-172v1049h172zM535 1190h-95l-170 194l-172 -194h-94l217 346h98z" />
<glyph unicode="&#xef;" d="M356 1049v-1049h-172v1049h172zM213 1319q0 -45 -31.5 -78t-77.5 -33q-42 0 -73 33t-31 78q0 46 30.5 79.5t73.5 33.5q47 0 78 -33t31 -80zM541 1319q0 -45 -31 -78t-76 -33t-75.5 33t-30.5 78q0 46 30.5 79.5t75.5 33.5t76 -33.5t31 -79.5z" />
<glyph unicode="&#xf0;" horiz-adv-x="1212" d="M1014 1585v-115l-217 -100q148 -155 230.5 -372.5t82.5 -411.5q0 -280 -141.5 -452.5t-370.5 -172.5q-140 0 -255.5 70.5t-183 198.5t-67.5 288q0 159 67.5 286.5t183 198t255.5 70.5t258 -74q-60 192 -174 320l-315 -141v114l233 105q-95 79 -205 112v90 q178 -34 320 -151zM926 518q0 188 -93 315.5t-229 127.5q-139 0 -232 -127.5t-93 -315.5q0 -187 92 -315.5t233 -128.5q136 0 229 129.5t93 314.5z" />
<glyph unicode="&#xf1;" horiz-adv-x="1177" d="M1026 0h-174v586q0 177 -51 258q-33 59 -90 90t-125 31q-121 0 -248 -78v-887h-172v1049h27q63 -31 106 -31q36 0 132 28.5t179 28.5q238 0 342 -153q74 -113 74 -306v-616zM926 1411q-81 -182 -209 -182q-66 0 -137 49q-65 43 -111 43q-57 0 -104 -80l-70 21 q78 182 209 182q36 0 66.5 -12.5t76.5 -40.5q63 -39 107 -39q66 0 104 80z" />
<glyph unicode="&#xf2;" horiz-adv-x="1204" d="M1110 518q0 -120 -39.5 -224t-107.5 -177t-161.5 -114.5t-197.5 -41.5q-142 0 -258.5 70.5t-185 198.5t-68.5 288q0 240 148 397.5t364 157.5q213 0 359.5 -157.5t146.5 -397.5zM926 518q0 189 -93 318t-229 129q-139 0 -232 -128.5t-93 -318.5q0 -188 92 -317t233 -129 q136 0 229 129.5t93 316.5zM803 1190h-94l-336 346h194z" />
<glyph unicode="&#xf3;" horiz-adv-x="1204" d="M1110 518q0 -120 -39.5 -224t-107.5 -177t-161.5 -114.5t-197.5 -41.5q-142 0 -258.5 70.5t-185 198.5t-68.5 288q0 240 148 397.5t364 157.5q213 0 359.5 -157.5t146.5 -397.5zM926 518q0 189 -93 318t-229 129q-139 0 -232 -128.5t-93 -318.5q0 -188 92 -317t233 -129 q136 0 229 129.5t93 316.5zM885 1536l-336 -346h-94l235 346h195z" />
<glyph unicode="&#xf4;" horiz-adv-x="1204" d="M1110 518q0 -120 -39.5 -224t-107.5 -177t-161.5 -114.5t-197.5 -41.5q-142 0 -258.5 70.5t-185 198.5t-68.5 288q0 240 148 397.5t364 157.5q213 0 359.5 -157.5t146.5 -397.5zM926 518q0 189 -93 318t-229 129q-139 0 -232 -128.5t-93 -318.5q0 -188 92 -317t233 -129 q136 0 229 129.5t93 316.5zM870 1190h-94l-170 194l-172 -194h-94l217 346h98z" />
<glyph unicode="&#xf5;" horiz-adv-x="1204" d="M1110 518q0 -120 -39.5 -224t-107.5 -177t-161.5 -114.5t-197.5 -41.5q-142 0 -258.5 70.5t-185 198.5t-68.5 288q0 240 148 397.5t364 157.5q213 0 359.5 -157.5t146.5 -397.5zM926 518q0 189 -93 318t-229 129q-139 0 -232 -128.5t-93 -318.5q0 -188 92 -317t233 -129 q136 0 229 129.5t93 316.5zM934 1411q-81 -182 -209 -182q-66 0 -137 49q-65 43 -111 43q-57 0 -104 -80l-70 21q78 182 209 182q36 0 66.5 -12.5t76.5 -40.5q63 -39 107 -39q66 0 104 80z" />
<glyph unicode="&#xf6;" horiz-adv-x="1204" d="M1110 518q0 -120 -39.5 -224t-107.5 -177t-161.5 -114.5t-197.5 -41.5q-142 0 -258.5 70.5t-185 198.5t-68.5 288q0 240 148 397.5t364 157.5q213 0 359.5 -157.5t146.5 -397.5zM926 518q0 189 -93 318t-229 129q-139 0 -232 -128.5t-93 -318.5q0 -188 92 -317t233 -129 q136 0 229 129.5t93 316.5zM549 1319q0 -45 -31.5 -78t-77.5 -33q-42 0 -73 33t-31 78q0 46 30.5 79.5t73.5 33.5q47 0 78 -33t31 -80zM877 1319q0 -45 -31 -78t-76 -33t-75.5 33t-30.5 78q0 46 30.5 79.5t75.5 33.5t76 -33.5t31 -79.5z" />
<glyph unicode="&#xf7;" horiz-adv-x="1116" d="M969 506h-822v119h822v-119zM666 965q0 -46 -31 -79.5t-76 -33.5t-75.5 33.5t-30.5 79.5q0 45 30.5 77.5t75.5 32.5t76 -32.5t31 -77.5zM666 164q0 -45 -31 -78t-76 -33t-75.5 33t-30.5 78q0 46 30.5 79t75.5 33t76 -33t31 -79z" />
<glyph unicode="&#xf8;" horiz-adv-x="1204" d="M1135 1153l-177 -231q152 -162 152 -404q0 -120 -39.5 -224t-107.5 -177t-161.5 -114.5t-197.5 -41.5q-160 0 -291 94l-125 -168h-127l175 236q-144 160 -144 395q0 240 148 397.5t364 157.5q154 0 281 -88l125 168h125zM862 788l-465 -620q84 -96 207 -96 q136 0 229 129.5t93 316.5q0 154 -64 270zM799 874q-85 91 -195 91q-139 0 -232 -128.5t-93 -318.5q0 -144 59 -262z" />
<glyph unicode="&#xf9;" horiz-adv-x="1177" d="M1012 1049v-1049h-27q-66 31 -106 31q-37 0 -133 -30t-179 -30q-235 0 -344 156q-71 108 -71 305v617h174v-586q0 -178 49 -258q71 -123 217 -123q125 0 246 80v887h174zM725 1190h-94l-336 346h194z" />
<glyph unicode="&#xfa;" horiz-adv-x="1177" d="M1012 1049v-1049h-27q-66 31 -106 31q-37 0 -133 -30t-179 -30q-235 0 -344 156q-71 108 -71 305v617h174v-586q0 -178 49 -258q71 -123 217 -123q125 0 246 80v887h174zM905 1536l-336 -346h-94l236 346h194z" />
<glyph unicode="&#xfb;" horiz-adv-x="1177" d="M1012 1049v-1049h-27q-66 31 -106 31q-37 0 -133 -30t-179 -30q-235 0 -344 156q-71 108 -71 305v617h174v-586q0 -178 49 -258q71 -123 217 -123q125 0 246 80v887h174zM852 1190h-94l-170 194l-172 -194h-94l217 346h98z" />
<glyph unicode="&#xfc;" horiz-adv-x="1177" d="M1012 1049v-1049h-27q-66 31 -106 31q-37 0 -133 -30t-179 -30q-235 0 -344 156q-71 108 -71 305v617h174v-586q0 -178 49 -258q71 -123 217 -123q125 0 246 80v887h174zM530 1319q0 -45 -31 -78t-77 -33q-43 0 -74 33.5t-31 77.5q0 46 31 79.5t74 33.5q46 0 77 -33 t31 -80zM858 1319q0 -45 -30.5 -78t-75.5 -33t-76 33t-31 78q0 46 31 79.5t76 33.5t75.5 -33.5t30.5 -79.5z" />
<glyph unicode="&#xfd;" horiz-adv-x="1038" d="M1020 1049l-436 -1049q-33 -77 -55 -125t-62 -127t-86.5 -151t-99.5 -136l-140 101q125 109 193 207t127 231l-443 1049h195l344 -836l180 455q90 236 109 381h174zM852 1536l-336 -346h-94l235 346h195z" />
<glyph unicode="&#xfe;" horiz-adv-x="1193" d="M338 1571v-565q148 69 283 69q209 0 344 -172q131 -166 131 -393q0 -84 -19 -163t-59 -149.5t-96.5 -123t-136 -83t-173.5 -30.5q-123 0 -274 72v-570h-172v2108h172zM338 881v-725q121 -84 254 -84q152 0 237.5 117t85.5 335q0 122 -38 220.5t-116.5 159.5t-185.5 61 q-70 0 -135.5 -27t-101.5 -57z" />
<glyph unicode="&#xff;" horiz-adv-x="1038" d="M1020 1049l-436 -1049q-33 -77 -55 -125t-62 -127t-86.5 -151t-99.5 -136l-140 101q125 109 193 207t127 231l-443 1049h195l344 -836l180 455q90 236 109 381h174zM485 1319q0 -45 -31 -78t-77 -33q-43 0 -74 33.5t-31 77.5q0 46 31 79.5t74 33.5q46 0 77 -33t31 -80z M813 1319q0 -45 -30.5 -78t-75.5 -33t-76 33t-31 78q0 46 31 79.5t76 33.5t75.5 -33.5t30.5 -79.5z" />
<glyph unicode="&#x131;" d="M356 1049v-1049h-172v1049h172z" />
<glyph unicode="&#x141;" horiz-adv-x="1046" d="M1032 119v-119h-833v528l-187 -106v131l187 106v469q0 59 -1.5 88.5t-10 66t-25.5 58.5q-14 20 -39.5 35.5t-50.5 16.5v18h305v-651l373 213v-129l-373 -213v-512h655z" />
<glyph unicode="&#x142;" d="M537 891l-181 -105v-786h-172v690l-182 -102v127l182 102v754h172v-658l181 105v-127z" />
<glyph unicode="&#x152;" horiz-adv-x="2021" d="M1915 0h-819v92q-70 -62 -169 -96.5t-194 -34.5q-185 0 -330.5 96.5t-225 266t-79.5 381.5q0 214 79.5 383t224.5 264.5t331 95.5q94 0 197.5 -36.5t165.5 -94.5v94h800v-119h-636v-506h542v-120h-542v-547h655v-119zM1081 274v863q-56 87 -149.5 138.5t-198.5 51.5 q-200 0 -318 -172.5t-118 -449.5q0 -181 52 -321.5t152 -221t232 -80.5q104 0 198.5 51.5t149.5 140.5z" />
<glyph unicode="&#x153;" horiz-adv-x="1935" d="M926 518q0 189 -93 318t-229 129q-139 0 -232 -128.5t-93 -318.5q0 -188 92 -317t233 -129q136 0 229 129.5t93 316.5zM1798 94q-178 -133 -387 -133q-121 0 -227.5 60t-173.5 161q-70 -103 -176.5 -162t-229.5 -59q-142 0 -258.5 70.5t-185 198.5t-68.5 288 q0 240 148 397.5t364 157.5q124 0 230.5 -56.5t175.5 -156.5q67 101 170.5 158t226.5 57q180 0 303 -117.5t123 -328.5q0 -34 -4 -74l-735 -23q0 -203 104.5 -323.5t271.5 -120.5q135 0 283 96zM1647 662q2 16 2 45q0 122 -69 192t-167 70q-129 0 -217 -89t-98 -239z" />
<glyph unicode="&#x160;" horiz-adv-x="1150" d="M999 1321l-75 -176q-66 79 -156 130.5t-195 51.5q-119 0 -197.5 -65t-78.5 -166q0 -46 20.5 -85.5t45.5 -66t78.5 -57t85.5 -45t100 -43.5q9 -4 14 -6q56 -23 86 -36.5t81 -39t79.5 -45.5t65 -52t56 -64t33 -74.5t13.5 -90.5q0 -129 -70.5 -229t-180 -150.5t-235.5 -50.5 q-124 0 -256.5 43.5t-226.5 108.5l78 176q79 -84 190.5 -144.5t223.5 -60.5q127 0 210.5 69t83.5 173q0 34 -11.5 65t-27.5 55t-47.5 49.5t-56 42t-70 39.5t-72.5 35.5t-79 34.5q-59 26 -97 44.5t-90.5 48t-86 59t-65.5 67.5t-47.5 84.5t-15.5 98.5q0 92 42 169t111 126.5 t155 76.5t176 27q189 0 409 -127zM836 1880l-215 -346h-99l-217 346h94l172 -194l170 194h95z" />
<glyph unicode="&#x161;" horiz-adv-x="989" d="M836 977l-72 -152q-131 142 -283 142q-89 0 -149 -46.5t-60 -115.5q0 -31 15.5 -58t37.5 -46t61 -38.5t70.5 -32t82.5 -30.5q149 -60 202 -91q141 -94 146 -222q0 -99 -58.5 -174.5t-149 -113.5t-194.5 -38q-100 0 -211 35t-192 84l72 149q67 -65 155.5 -112t175.5 -47 q96 0 161 47.5t65 115.5q0 20 -5 38.5t-19 35t-25.5 29.5t-37.5 28t-40 23.5t-49 23t-49.5 20.5t-53.5 22q-58 23 -98 41t-89 47.5t-78.5 60t-50 73.5t-20.5 93q0 91 58 162t148.5 107t193.5 36q164 0 340 -96zM743 1536l-215 -346h-98l-217 346h94l172 -195l170 195h94z " />
<glyph unicode="&#x178;" horiz-adv-x="1099" d="M1100 1411l-461 -776v-635h-176v635l-463 776h207l381 -639q98 160 196.5 360t106.5 279h209zM506 1647q0 -45 -31.5 -78t-77.5 -33q-42 0 -73 33t-31 78q0 46 30.5 79t73.5 33q47 0 78 -33t31 -79zM834 1647q0 -45 -31 -78t-76 -33t-75.5 33t-30.5 78q0 46 30.5 79 t75.5 33t76 -33t31 -79z" />
<glyph unicode="&#x17d;" horiz-adv-x="1093" d="M1016 1339l-737 -1220h733v-119h-957v86l725 1206h-708l16 119h928v-72zM801 1884l-215 -346h-99l-217 346h95l172 -194l170 194h94z" />
<glyph unicode="&#x17e;" horiz-adv-x="980" d="M881 965l-584 -848h580v-117h-803v92l577 840h-549l27 117h752v-84zM754 1536l-215 -346h-99l-217 346h94l172 -195l170 195h95z" />
<glyph unicode="&#x192;" horiz-adv-x="985" d="M1024 1389l-115 -132q-65 90 -110 111q-28 16 -56 16q-30 0 -59 -18q-78 -58 -111 -291l-28 -209h276l-12 -114h-279l-84 -643q-25 -188 -132 -310.5t-246 -122.5q-135 0 -250 105l116 141q55 -82 111 -121q3 -1 12 -6t13.5 -7t13 -4.5t16.5 -2.5q46 0 82 51 q60 99 97 354l118 899q14 106 51.5 185t90 123.5t110.5 66t121 21.5q127 0 254 -92z" />
<glyph unicode="&#x2c6;" d="M535 1190h-95l-170 194l-172 -194h-94l217 346h98z" />
<glyph unicode="&#x2c7;" d="M535 1536l-216 -346h-98l-217 346h94l172 -195l170 195h95z" />
<glyph unicode="&#x2d8;" d="M532 1487q-17 -151 -86.5 -224t-175.5 -73t-175.5 73t-86.5 224h70q21 -84 71.5 -126t120.5 -42t121 42t72 126h69z" />
<glyph unicode="&#x2d9;" d="M379 1323q0 -46 -32 -80.5t-79 -34.5q-44 0 -76 34.5t-32 80.5t32 81.5t76 35.5q46 0 78.5 -35t32.5 -82z" />
<glyph unicode="&#x2da;" d="M63 1397q0 86 60.5 146.5t146.5 60.5t146.5 -60.5t60.5 -146.5t-60.5 -146.5t-146.5 -60.5t-146.5 60.5t-60.5 146.5zM172 1397q0 -41 28.5 -70t69.5 -29t70 29t29 70t-29 69.5t-70 28.5t-69.5 -28.5t-28.5 -69.5z" />
<glyph unicode="&#x2db;" d="M496 -336v-115q-85 -36 -183 -36q-112 0 -189 64.5t-77 164.5q0 118 101.5 211.5t234.5 128.5v-82q-87 -39 -137.5 -113t-50.5 -145q0 -57 35.5 -93t105.5 -36q80 0 160 51z" />
<glyph unicode="&#x2dc;" d="M594 1411q-81 -182 -209 -182q-66 0 -137 49q-65 43 -111 43q-57 0 -104 -80l-70 21q78 182 209 182q36 0 66.5 -12.5t76.5 -40.5q63 -39 107 -39q66 0 104 80z" />
<glyph unicode="&#x2dd;" d="M676 1536l-334 -346h-94l235 346h193zM381 1556l-281 -366h-88l183 366h186z" />
<glyph unicode="&#x3c0;" horiz-adv-x="1423" d="M1327 61q-131 -100 -246 -100q-93 0 -143.5 56.5t-50.5 158.5v787h-418v-963h-174v963h-170v131h1116v-131h-180v-775q0 -104 80 -104q62 0 143 51z" />
<glyph unicode="&#x2000;" horiz-adv-x="942" />
<glyph unicode="&#x2001;" horiz-adv-x="1884" />
<glyph unicode="&#x2002;" horiz-adv-x="942" />
<glyph unicode="&#x2003;" horiz-adv-x="1884" />
<glyph unicode="&#x2004;" horiz-adv-x="628" />
<glyph unicode="&#x2005;" horiz-adv-x="471" />
<glyph unicode="&#x2006;" horiz-adv-x="314" />
<glyph unicode="&#x2007;" horiz-adv-x="314" />
<glyph unicode="&#x2008;" horiz-adv-x="235" />
<glyph unicode="&#x2009;" horiz-adv-x="376" />
<glyph unicode="&#x200a;" horiz-adv-x="104" />
<glyph unicode="&#x2010;" horiz-adv-x="620" d="M545 506h-469v119h469v-119z" />
<glyph unicode="&#x2011;" horiz-adv-x="620" d="M545 506h-469v119h469v-119z" />
<glyph unicode="&#x2012;" horiz-adv-x="620" d="M545 506h-469v119h469v-119z" />
<glyph unicode="&#x2013;" horiz-adv-x="1046" d="M997 506h-948v119h948v-119z" />
<glyph unicode="&#x2014;" horiz-adv-x="1898" d="M1712 506h-1526v119h1526v-119z" />
<glyph unicode="&#x2018;" horiz-adv-x="446" d="M365 1460q-51 -46 -85 -106t-34 -107q0 -38 27 -66.5t75 -37.5l6 -17q-6 -51 -44 -83.5t-87 -32.5q-48 0 -89.5 39.5t-41.5 101.5q0 85 66.5 181.5t158.5 176.5z" />
<glyph unicode="&#x2019;" horiz-adv-x="446" d="M129 985l-49 51q52 45 86.5 105.5t34.5 105.5q0 39 -27.5 68.5t-73.5 38.5l-6 14q6 54 43 86.5t86 32.5t91 -39t42 -102q0 -85 -67.5 -183t-159.5 -178z" />
<glyph unicode="&#x201a;" horiz-adv-x="485" d="M147 -291l-49 51q52 44 85.5 104.5t33.5 106.5q0 38 -26 67t-74 38l-6 16q6 52 44 85.5t85 33.5q50 0 90.5 -39.5t40.5 -103.5q0 -85 -66 -182t-158 -177z" />
<glyph unicode="&#x201c;" horiz-adv-x="800" d="M365 1460q-51 -46 -85 -106t-34 -107q0 -38 27 -66.5t75 -37.5l6 -17q-6 -51 -44 -83.5t-87 -32.5q-48 0 -89.5 39.5t-41.5 101.5q0 85 66.5 181.5t158.5 176.5zM721 1460q-53 -45 -86 -105t-33 -108q0 -37 26.5 -66t71.5 -38l7 -17q-6 -51 -43.5 -83.5t-85.5 -32.5 t-90 39.5t-42 101.5q0 85 66.5 181t159.5 177z" />
<glyph unicode="&#x201d;" horiz-adv-x="800" d="M129 985l-49 51q52 45 86.5 105.5t34.5 105.5q0 39 -27.5 68.5t-73.5 38.5l-6 14q6 54 43 86.5t86 32.5t91 -39t42 -102q0 -85 -67.5 -183t-159.5 -178zM483 985l-47 51q51 46 85 106.5t34 104.5q0 39 -27 68.5t-73 38.5l-6 14q6 54 43 86.5t86 32.5q50 0 90.5 -38.5 t40.5 -102.5q0 -86 -67 -184.5t-159 -176.5z" />
<glyph unicode="&#x201e;" horiz-adv-x="839" d="M147 -291l-49 51q52 44 85.5 104.5t33.5 106.5q0 38 -26 67t-74 38l-6 16q6 52 44 85.5t85 33.5q50 0 90.5 -39.5t40.5 -103.5q0 -85 -66 -182t-158 -177zM500 -291l-47 51q52 43 85 103.5t33 107.5q0 38 -26.5 67t-71.5 38l-6 16q6 53 42.5 86t86.5 33q47 0 89 -40 t42 -103q0 -85 -67 -182.5t-160 -176.5z" />
<glyph unicode="&#x2020;" horiz-adv-x="1189" d="M1042 805l-401 63l51 -415l-57 -832h-82l-55 832l51 415l-402 -63v213l402 -60l-55 490h202l-55 -490l401 60v-213z" />
<glyph unicode="&#x2021;" horiz-adv-x="1189" d="M1042 55l-401 58l55 -492h-202l55 492l-402 -58v209l402 -61l-51 332l51 333l-402 -63v213l402 -60l-55 490h202l-55 -490l401 60v-213l-401 63l51 -333l-51 -332l401 61v-209z" />
<glyph unicode="&#x2022;" horiz-adv-x="679" d="M561 752q0 -91 -64.5 -154t-156.5 -63q-91 0 -155 63t-64 154t64 155t155 64q92 0 156.5 -64t64.5 -155z" />
<glyph unicode="&#x2026;" horiz-adv-x="1462" d="M358 88q0 -50 -33 -84.5t-83 -34.5q-47 0 -81 35t-34 84q0 50 34 86.5t81 36.5q50 0 83 -36t33 -87zM848 88q0 -49 -34.5 -84t-82.5 -35q-50 0 -83.5 34.5t-33.5 84.5t33.5 86.5t83.5 36.5q47 0 82 -36.5t35 -86.5zM1335 88q0 -50 -34.5 -84.5t-83.5 -34.5t-82 34.5 t-33 84.5t33 86.5t82 36.5t83.5 -36.5t34.5 -86.5z" />
<glyph unicode="&#x202f;" horiz-adv-x="376" />
<glyph unicode="&#x2030;" horiz-adv-x="2584" d="M815 1020q0 -171 -103.5 -283t-252.5 -112q-151 0 -255 112t-104 283t104 283t255 112q149 0 252.5 -112t103.5 -283zM659 1020q0 125 -57 211t-143 86t-145.5 -86t-59.5 -211q0 -126 58.5 -211.5t146.5 -85.5q86 0 143 86t57 211zM1350 1430l-801 -1450h-127l801 1450 h127zM1667 391q0 -171 -103 -283t-251 -112q-153 0 -257 112t-104 283q0 170 104.5 282.5t256.5 112.5q148 0 251 -112.5t103 -282.5zM1513 391q0 125 -57 211t-143 86q-87 0 -146 -86t-59 -211q0 -126 58.5 -211.5t146.5 -85.5q86 0 143 86t57 211zM2486 391 q0 -171 -104 -283t-254 -112q-151 0 -253.5 112t-102.5 283q0 170 102.5 282.5t253.5 112.5q150 0 254 -112.5t104 -282.5zM2331 391q0 125 -58.5 211t-144.5 86t-145.5 -86t-59.5 -211q0 -126 58.5 -211.5t146.5 -85.5q86 0 144.5 86t58.5 211z" />
<glyph unicode="&#x2039;" horiz-adv-x="735" d="M584 225l-84 -78l-408 418l408 420l84 -78l-285 -342z" />
<glyph unicode="&#x203a;" horiz-adv-x="735" d="M643 565l-410 -418l-81 78l286 340l-286 342l81 78z" />
<glyph unicode="&#x2044;" horiz-adv-x="370" d="M649 1430l-799 -1450h-129l801 1450h127z" />
<glyph unicode="&#x205f;" horiz-adv-x="471" />
<glyph unicode="&#x20ac;" horiz-adv-x="1234" d="M1149 1335l-74 -143q-46 57 -117.5 95t-142.5 38q-129 0 -218.5 -115.5t-123.5 -304.5h440l-16 -104h-436q-7 -85 0 -174h411l-16 -105h-383q34 -198 135 -317t236 -119q169 0 301 113v-158q-84 -33 -159 -49.5t-179 -16.5q-198 0 -342 151.5t-182 395.5h-195l16 105h168 q-5 75 2 174h-176l17 104h174q43 234 185 382.5t329 148.5q97 0 178 -27t168 -74z" />
<glyph unicode="&#x2122;" horiz-adv-x="1536" d="M1333 946h-116l-54 473l-135 -473h-92l-133 473l-55 -473h-113l82 625h135l131 -461l131 461h139zM578 1489h-189v-543h-117v543h-188v82h494v-82z" />
<glyph unicode="&#x2126;" horiz-adv-x="1548" d="M1462 313l-45 -313h-528l-17 68q73 53 129 110t106 134t76.5 176.5t26.5 216.5q0 118 -28.5 228t-82 198.5t-138 142t-187.5 53.5q-102 0 -186 -53.5t-136.5 -142t-81 -198.5t-28.5 -228q0 -117 26.5 -216.5t76 -176.5t105 -134t128.5 -110l-16 -68h-529l-45 313l21 2 q10 -38 21 -64.5t27.5 -44t31 -27t41 -14.5t48 -6t60.5 -1h104q-29 24 -46 39.5t-52.5 52t-59 68.5t-54 83t-48 102.5t-30.5 119.5t-13 141q0 185 81.5 341.5t228 249.5t325.5 93t326 -93t229 -249.5t82 -341.5q0 -73 -12.5 -141t-31 -119.5t-48 -102t-54 -83.5t-59.5 -68.5 t-53.5 -52t-46.5 -39.5h106q39 0 60.5 1t47.5 6t41 14.5t31 27t27 44t21 64.5z" />
<glyph unicode="&#x2202;" horiz-adv-x="1212" d="M395 1599q134 -24 252 -100.5t201 -183t143.5 -233.5t89.5 -254t29 -242q0 -280 -141.5 -452.5t-370.5 -172.5q-140 0 -255.5 70.5t-183 198.5t-67.5 288q0 159 67.5 286.5t183 198t255.5 70.5t258 -74q-6 22 -14 44.5t-27 67t-42 83.5t-61 88t-81.5 89t-105 77.5 t-130.5 60.5v90zM926 518q0 188 -93 315.5t-229 127.5q-139 0 -232 -127.5t-93 -315.5q0 -187 92 -315.5t233 -128.5q136 0 229 129.5t93 314.5z" />
<glyph unicode="&#x2206;" horiz-adv-x="1320" d="M1290 20v-20h-1259v20l590 1428h75zM1034 170l-405 985l-404 -985h809z" />
<glyph unicode="&#x220f;" horiz-adv-x="1517" d="M1425 1270h-208v-1270h-175v1270h-563v-1270h-178v1270h-209v141h1333v-141z" />
<glyph unicode="&#x2211;" horiz-adv-x="1366" d="M1149 383v-422h-1126v78l620 674l-594 657v78h1100v-358h-21q-2 6 -7 29t-8 35t-10.5 35t-16.5 36.5t-22.5 33t-31 31t-40 23t-53 17t-65.5 5.5h-536l502 -551v-16l-582 -629h616q40 0 73 8t56 19t42.5 31t30 35t21 41t14 39t9.5 39t8 32h21z" />
<glyph unicode="&#x2212;" horiz-adv-x="1116" d="M969 506h-822v119h822v-119z" />
<glyph unicode="&#x221a;" horiz-adv-x="1257" d="M668 -39h-105l-319 731l-135 -84l-39 66l276 194l301 -694l535 1409l96 -37z" />
<glyph unicode="&#x221e;" horiz-adv-x="1318" d="M625 510q-21 30 -74 92q-45 56 -89 88.5t-100 32.5q-61 0 -106 -38t-45 -105q0 -75 60 -119.5t139 -44.5q121 0 215 94zM692 621q15 -22 76 -93q92 -120 184 -120q63 0 109.5 38t46.5 105q0 75 -60 119.5t-141 44.5q-121 0 -215 -94zM655 457q-42 -76 -115 -128.5 t-159 -52.5q-112 0 -184 86t-72 203q0 125 73.5 207t182.5 82q66 0 117 -26.5t102 -79.5q33 -38 59 -74q46 77 118.5 128.5t158.5 51.5q112 0 185 -86.5t73 -204.5q0 -123 -75 -205t-183 -82q-118 0 -217 107q-39 39 -64 74z" />
<glyph unicode="&#x222b;" horiz-adv-x="847" d="M946 1389l-115 -132q-65 90 -110 111q-28 16 -55 16q-31 0 -60 -18q-76 -57 -110 -291l-127 -966q-25 -188 -132.5 -310.5t-246.5 -122.5q-134 0 -252 105l119 141q60 -88 110 -119q35 -22 56 -22q45 0 81 51q61 100 95 354l120 899q14 106 51.5 185t89.5 123.5t110 66 t122 21.5q127 0 254 -92z" />
<glyph unicode="&#x2248;" horiz-adv-x="1116" d="M958 819l66 -96q-155 -129 -289 -129q-31 0 -66.5 9.5t-58.5 19t-65 28.5q-44 22 -62 30t-51 19t-57 11q-94 0 -217 -97l-64 93q70 64 145 98.5t140 34.5q38 0 79.5 -11.5t63.5 -22t66 -32.5l15 -7.5l16 -8t14.5 -7t16 -7t15 -6t16 -6t14.5 -4.5t15.5 -4t14 -2t14.5 -1 q104 0 219 98zM958 520l66 -96q-155 -129 -289 -129q-31 0 -66.5 9.5t-58.5 19t-65 28.5q-5 2 -25 12t-26.5 13t-23.5 11t-26 11l-22.5 7.5t-24.5 6t-22 1.5q-92 0 -217 -99l-64 95q70 63 145 97t140 34q38 0 79.5 -11.5t63.5 -22t66 -32.5l15 -7.5l16 -8t14.5 -7t16 -7 t15 -6t16 -6t14.5 -4.5t15.5 -4t14 -2t14.5 -1q100 0 219 98z" />
<glyph unicode="&#x2260;" horiz-adv-x="1116" d="M969 360h-463l-133 -229h-135l133 229h-224v119h293l101 172h-394v119h461l133 229h136l-134 -229h226v-119h-293l-101 -172h394v-119z" />
<glyph unicode="&#x2264;" horiz-adv-x="1116" d="M969 289l-822 321v113l822 324v-134l-654 -243l654 -248v-133zM969 66h-822v116h822v-116z" />
<glyph unicode="&#x2265;" horiz-adv-x="1116" d="M969 610l-822 -321v133l656 248l-656 243v134l822 -324v-113zM969 66h-822v116h822v-116z" />
<glyph unicode="&#x25ca;" horiz-adv-x="1085" d="M979 709l-395 -738h-88l-390 738l390 739h88zM819 709l-276 532h-4l-275 -532l275 -533h4z" />
<glyph unicode="&#x25fc;" horiz-adv-x="1044" d="M0 1044h1044v-1044h-1044v1044z" />
<glyph unicode="&#xf8ff;" horiz-adv-x="1601" d="M1094 1415q7 -144 -86.5 -249t-219.5 -105q3 147 84.5 241t221.5 113zM1425 344q-78 -189 -169 -293t-177 -104q-42 0 -109.5 28.5t-131.5 28.5q-73 0 -154.5 -30.5t-110.5 -30.5q-92 0 -186.5 112.5t-152.5 272.5t-58 299q0 199 106.5 323.5t276.5 124.5q65 0 149 -30.5 t105 -30.5q35 0 122.5 32.5t154.5 32.5q189 0 296 -145q-89 -67 -127 -133t-38 -152q0 -103 54.5 -184t149.5 -121z" />
<glyph horiz-adv-x="1196" d="M791 592l-209 631l-203 -631h412zM1190 0h-199l-160 473h-487l-151 -473h-187l510 1411h162z" />
<glyph horiz-adv-x="1241" d="M356 811h256q111 0 186.5 70t75.5 194q0 107 -74.5 164t-199.5 57h-244v-485zM356 115h260q158 0 243 79.5t85 227.5q0 129 -83 201.5t-214 72.5h-291v-581zM178 1411h494q97 0 173 -26.5t121.5 -72t69 -100.5t23.5 -116q0 -108 -66 -198.5t-182 -121.5q324 -81 324 -373 q0 -75 -31 -148t-88 -130q-61 -58 -148.5 -91.5t-185.5 -33.5h-504v1411z" />
<glyph horiz-adv-x="1355" d="M356 1296v-1181h195q246 0 381 170q131 161 131 420q0 260 -131 421q-135 170 -381 170h-195zM178 1411h379q130 0 248.5 -37.5t206.5 -109.5q114 -97 178.5 -244.5t64.5 -314.5q0 -166 -64.5 -313.5t-178.5 -244.5q-88 -72 -206.5 -109.5t-248.5 -37.5h-379v1411z" />
<glyph horiz-adv-x="1118" d="M1012 119v-119h-834v1411h815v-119h-637v-506h543v-120h-543v-547h656z" />
<glyph horiz-adv-x="1040" d="M993 1411v-119h-637v-506h543v-120h-543v-666h-178v1411h815z" />
<glyph horiz-adv-x="1347" d="M1171 1411v-1411h-178v666h-637v-666h-178v1411h178v-625h637v625h178z" />
<glyph horiz-adv-x="563" d="M371 1411v-1411h-178v1411h178z" />
<glyph horiz-adv-x="567" d="M197 1411h178v-1249q0 -67 -13 -127.5t-30.5 -103t-51 -91t-57.5 -76.5t-67.5 -76.5t-65.5 -74.5l-70 59q43 57 70.5 101t54.5 106t39.5 136.5t12.5 166.5v1229z" />
<glyph horiz-adv-x="1208" d="M356 1411v-1411h-178v1411h178zM1204 0h-231l-617 729q534 550 592 682h240l-627 -649z" />
<glyph horiz-adv-x="1026" d="M1012 119v-119h-834v1411h178v-1292h656z" />
<glyph horiz-adv-x="1708" d="M1608 0h-187l-141 1253l-350 -1253h-158l-344 1253l-141 -1253h-185l183 1411h241l312 -1116q12 -40 16 -82q3 29 18 80l310 1118h256z" />
<glyph horiz-adv-x="1327" d="M1151 1411v-1411h-178l-631 1249l8 -1249h-172v1411h246l528 -1055q2 -5 14.5 -30.5t20 -44.5t10.5 -31q-1 25 -2 97t-2 106l-14 958h172z" />
<glyph horiz-adv-x="1167" d="M356 0h-178v1411h416q212 0 330 -90q143 -107 143 -305q0 -169 -132 -283.5t-341 -114.5h-238v-618zM356 735h209q149 0 233.5 72.5t84.5 208.5t-84.5 208t-233.5 72h-209v-561z" />
<glyph horiz-adv-x="1206" d="M356 743h222q82 0 144 24.5t97.5 67t52.5 92.5t17 107q0 127 -74.5 194.5t-202.5 67.5h-256v-553zM178 1411h467q199 0 314.5 -94t115.5 -277q0 -152 -80 -249.5t-219 -135.5l445 -655h-213l-422 627h-230v-627h-178v1411z" />
<glyph horiz-adv-x="1370" d="M1192 1411v-891q0 -140 -39 -248.5t-108 -175.5t-159.5 -101t-197.5 -34q-106 0 -196.5 33t-161.5 98t-111.5 172t-40.5 246v901h178v-911q0 -105 28.5 -184.5t79 -125.5t112.5 -69t135 -23q168 0 254 115.5t86 314.5v883h141z" />
<glyph horiz-adv-x="1376" d="M199 1411h379q130 0 248 -37.5t206 -109.5q114 -97 179 -244.5t65 -314.5q0 -165 -65 -313t-179 -245q-88 -72 -206 -109.5t-248 -37.5h-379v670h-148v114h148v627zM788 670h-411v-555h201q241 0 376 170q129 159 129 420q0 262 -129 421q-135 170 -376 170h-201v-512 h411v-114z" />
<glyph horiz-adv-x="1196" d="M791 592l-209 631l-203 -631h412zM1190 0h-199l-160 473h-487l-151 -473h-187l510 1411h162zM539 1667q0 -45 -31.5 -78t-77.5 -33q-42 0 -73 33t-31 78q0 46 30.5 79.5t73.5 33.5q47 0 78 -33t31 -80zM866 1667q0 -45 -30.5 -78t-75.5 -33t-76 33t-31 78q0 46 31 79.5 t76 33.5t75.5 -33.5t30.5 -79.5z" />
<glyph horiz-adv-x="1196" d="M791 592l-209 631l-203 -631h412zM1190 0h-199l-160 473h-487l-151 -473h-187l510 1411h162zM389 1675q0 86 60.5 146.5t146.5 60.5t146.5 -60.5t60.5 -146.5t-60.5 -146.5t-146.5 -60.5t-146.5 60.5t-60.5 146.5zM498 1675q0 -41 28.5 -69.5t69.5 -28.5t69.5 28.5 t28.5 69.5t-28.5 70t-69.5 29t-69.5 -29t-28.5 -70z" />
<glyph horiz-adv-x="1196" d="M791 592l-209 631l-203 -631h412zM1190 0h-199l-160 473h-487l-151 -473h-187l510 1411h162zM735 1538h-94l-336 346h195z" />
<glyph horiz-adv-x="1196" d="M928 1759q-81 -182 -209 -182q-66 0 -137 49q-65 43 -111 43q-57 0 -104 -80l-70 21q78 182 209 182q36 0 66.5 -12.5t76.5 -40.5q63 -39 107 -39q66 0 104 80zM791 592l-209 631l-203 -631h412zM1190 0h-199l-160 473h-487l-151 -473h-187l510 1411h162z" />
<glyph horiz-adv-x="1196" d="M791 592l-209 631l-203 -631h412zM1190 0h-199l-160 473h-487l-151 -473h-187l510 1411h162zM862 1538h-94l-170 195l-172 -195h-94l217 346h98z" />
<glyph horiz-adv-x="1196" d="M791 592l-209 631l-203 -631h412zM1190 0h-199l-160 473h-487l-151 -473h-187l510 1411h162zM922 1884l-336 -346h-94l235 346h195z" />
<glyph horiz-adv-x="1118" d="M1012 119v-119h-834v1411h815v-119h-637v-506h543v-120h-543v-547h656zM911 1884l-336 -346h-94l236 346h194z" />
<glyph horiz-adv-x="1118" d="M1012 119v-119h-834v1411h815v-119h-637v-506h543v-120h-543v-547h656zM866 1538h-94l-170 195l-172 -195h-94l217 346h98z" />
<glyph horiz-adv-x="1118" d="M1012 119v-119h-834v1411h815v-119h-637v-506h543v-120h-543v-547h656zM545 1667q0 -45 -31.5 -78t-77.5 -33q-42 0 -73 33t-31 78q0 46 30.5 79.5t73.5 33.5q47 0 78 -33t31 -80zM872 1667q0 -45 -30.5 -78t-75.5 -33t-76 33t-31 78q0 46 31 79.5t76 33.5t75.5 -33.5 t30.5 -79.5z" />
<glyph horiz-adv-x="1118" d="M1012 119v-119h-834v1411h815v-119h-637v-506h543v-120h-543v-547h656zM721 1538h-94l-336 346h194z" />
<glyph horiz-adv-x="563" d="M578 1884l-336 -346h-95l236 346h195zM371 1411v-1411h-178v1411h178z" />
<glyph horiz-adv-x="563" d="M371 1411v-1411h-178v1411h178zM547 1538h-94l-170 195l-172 -195h-95l217 346h99z" />
<glyph horiz-adv-x="563" d="M225 1667q0 -45 -31 -78t-77 -33q-43 0 -74 33.5t-31 77.5q0 46 31 79.5t74 33.5q46 0 77 -33t31 -80zM553 1667q0 -45 -31 -78t-76 -33t-75.5 33t-30.5 78q0 46 30.5 79.5t75.5 33.5t76 -33.5t31 -79.5zM371 1411v-1411h-178v1411h178z" />
<glyph horiz-adv-x="563" d="M371 1411v-1411h-178v1411h178zM434 1538h-94l-336 346h195z" />
<glyph horiz-adv-x="1046" d="M1032 119v-119h-833v528l-187 -106v131l187 106v752h178v-651l373 213v-129l-373 -213v-512h655z" />
<glyph horiz-adv-x="1327" d="M1151 1411v-1411h-178l-631 1249l8 -1249h-172v1411h246l528 -1055q2 -5 14.5 -30.5t20 -44.5t10.5 -31q-1 25 -2 97t-2 106l-14 958h172zM1004 1759q-81 -182 -209 -182q-67 0 -138 49q-65 43 -110 43q-58 0 -105 -80l-69 21q78 182 209 182q36 0 66.5 -12.5t76.5 -40.5 q63 -39 106 -39q67 0 105 80z" />
<glyph horiz-adv-x="1370" d="M1192 1411v-891q0 -140 -39 -248.5t-108 -175.5t-159.5 -101t-197.5 -34q-106 0 -196.5 33t-161.5 98t-111.5 172t-40.5 246v901h178v-911q0 -105 28.5 -184.5t79 -125.5t112.5 -69t135 -23q168 0 254 115.5t86 314.5v883h141zM641 1667q0 -45 -31.5 -78t-77.5 -33 q-42 0 -73 33t-31 78q0 46 30.5 79.5t73.5 33.5q47 0 78 -33t31 -80zM969 1667q0 -45 -31 -78t-76 -33t-75.5 33t-30.5 78q0 46 30.5 79.5t75.5 33.5t76 -33.5t31 -79.5z" />
<glyph horiz-adv-x="1370" d="M1192 1411v-891q0 -140 -39 -248.5t-108 -175.5t-159.5 -101t-197.5 -34q-106 0 -196.5 33t-161.5 98t-111.5 172t-40.5 246v901h178v-911q0 -105 28.5 -184.5t79 -125.5t112.5 -69t135 -23q168 0 254 115.5t86 314.5v883h141zM1014 1884l-336 -346h-94l235 346h195z" />
<glyph horiz-adv-x="1370" d="M1192 1411v-891q0 -140 -39 -248.5t-108 -175.5t-159.5 -101t-197.5 -34q-106 0 -196.5 33t-161.5 98t-111.5 172t-40.5 246v901h178v-911q0 -105 28.5 -184.5t79 -125.5t112.5 -69t135 -23q168 0 254 115.5t86 314.5v883h141zM969 1538h-95l-169 195l-173 -195h-94 l217 346h99z" />
<glyph horiz-adv-x="1370" d="M1192 1411v-891q0 -140 -39 -248.5t-108 -175.5t-159.5 -101t-197.5 -34q-106 0 -196.5 33t-161.5 98t-111.5 172t-40.5 246v901h178v-911q0 -105 28.5 -184.5t79 -125.5t112.5 -69t135 -23q168 0 254 115.5t86 314.5v883h141zM831 1538h-94l-336 346h195z" />
<glyph horiz-adv-x="1802" d="M1696 119v-119h-834v545h-448l-285 -545h-197l801 1411h944v-119h-637v-506h543v-120h-543v-547h656zM862 666v626h-59l-324 -626h383z" />
<glyph horiz-adv-x="1052" d="M723 156l4 370l-164 -37q-155 -37 -225 -86t-70 -145q0 -50 19.5 -87t52.5 -56.5t69.5 -28t77.5 -8.5q136 0 236 78zM897 0h-29q-47 31 -94 31q-35 0 -83.5 -17.5t-109.5 -35t-126 -17.5q-176 0 -275.5 77t-99.5 195q0 125 86.5 209.5t284.5 128.5l278 64v39 q0 293 -215 293q-147 0 -301 -158l-82 154q202 112 391 112q132 0 216.5 -51t123.5 -141q39 -83 39 -238z" />
<glyph horiz-adv-x="1052" d="M723 156l4 370l-164 -37q-155 -37 -225 -86t-70 -145q0 -50 19.5 -87t52.5 -56.5t69.5 -28t77.5 -8.5q136 0 236 78zM897 0h-29q-47 31 -94 31q-35 0 -83.5 -17.5t-109.5 -35t-126 -17.5q-176 0 -275.5 77t-99.5 195q0 125 86.5 209.5t284.5 128.5l278 64v39 q0 293 -215 293q-147 0 -301 -158l-82 154q202 112 391 112q132 0 216.5 -51t123.5 -141q39 -83 39 -238zM819 1536l-336 -346h-94l236 346h194z" />
<glyph horiz-adv-x="1052" d="M723 156l4 370l-164 -37q-155 -37 -225 -86t-70 -145q0 -50 19.5 -87t52.5 -56.5t69.5 -28t77.5 -8.5q136 0 236 78zM897 0h-29q-47 31 -94 31q-35 0 -83.5 -17.5t-109.5 -35t-126 -17.5q-176 0 -275.5 77t-99.5 195q0 125 86.5 209.5t284.5 128.5l278 64v39 q0 293 -215 293q-147 0 -301 -158l-82 154q202 112 391 112q132 0 216.5 -51t123.5 -141q39 -83 39 -238zM688 1190h-94l-336 346h195z" />
<glyph horiz-adv-x="1052" d="M723 156l4 370l-164 -37q-155 -37 -225 -86t-70 -145q0 -50 19.5 -87t52.5 -56.5t69.5 -28t77.5 -8.5q136 0 236 78zM897 0h-29q-47 31 -94 31q-35 0 -83.5 -17.5t-109.5 -35t-126 -17.5q-176 0 -275.5 77t-99.5 195q0 125 86.5 209.5t284.5 128.5l278 64v39 q0 293 -215 293q-147 0 -301 -158l-82 154q202 112 391 112q132 0 216.5 -51t123.5 -141q39 -83 39 -238zM782 1190h-94l-170 194l-172 -194h-94l217 346h98z" />
<glyph horiz-adv-x="1052" d="M723 156l4 370l-164 -37q-155 -37 -225 -86t-70 -145q0 -50 19.5 -87t52.5 -56.5t69.5 -28t77.5 -8.5q136 0 236 78zM897 0h-29q-47 31 -94 31q-35 0 -83.5 -17.5t-109.5 -35t-126 -17.5q-176 0 -275.5 77t-99.5 195q0 125 86.5 209.5t284.5 128.5l278 64v39 q0 293 -215 293q-147 0 -301 -158l-82 154q202 112 391 112q132 0 216.5 -51t123.5 -141q39 -83 39 -238zM461 1319q0 -45 -31.5 -78t-77.5 -33q-42 0 -73 33t-31 78q0 46 30.5 79.5t73.5 33.5q47 0 78 -33t31 -80zM788 1319q0 -45 -30.5 -78t-75.5 -33t-76 33t-31 78 q0 46 31 79.5t76 33.5t75.5 -33.5t30.5 -79.5z" />
<glyph horiz-adv-x="1052" d="M723 156l4 370l-164 -37q-155 -37 -225 -86t-70 -145q0 -50 19.5 -87t52.5 -56.5t69.5 -28t77.5 -8.5q136 0 236 78zM897 0h-29q-47 31 -94 31q-35 0 -83.5 -17.5t-109.5 -35t-126 -17.5q-176 0 -275.5 77t-99.5 195q0 125 86.5 209.5t284.5 128.5l278 64v39 q0 293 -215 293q-147 0 -301 -158l-82 154q202 112 391 112q132 0 216.5 -51t123.5 -141q39 -83 39 -238zM864 1411q-81 -182 -209 -182q-66 0 -137 49q-65 43 -110 43q-58 0 -105 -80l-70 21q78 182 209 182q36 0 67.5 -12.5t76.5 -40.5q63 -39 106 -39q67 0 105 80z" />
<glyph horiz-adv-x="1052" d="M723 156l4 370l-164 -37q-155 -37 -225 -86t-70 -145q0 -50 19.5 -87t52.5 -56.5t69.5 -28t77.5 -8.5q136 0 236 78zM897 0h-29q-47 31 -94 31q-35 0 -83.5 -17.5t-109.5 -35t-126 -17.5q-176 0 -275.5 77t-99.5 195q0 125 86.5 209.5t284.5 128.5l278 64v39 q0 293 -215 293q-147 0 -301 -158l-82 154q202 112 391 112q132 0 216.5 -51t123.5 -141q39 -83 39 -238zM311 1397q0 86 60.5 146.5t146.5 60.5t146.5 -60.5t60.5 -146.5t-60.5 -146.5t-146.5 -60.5t-146.5 60.5t-60.5 146.5zM420 1397q0 -41 28.5 -70t69.5 -29t69.5 29 t28.5 70t-28.5 69.5t-69.5 28.5t-69.5 -28.5t-28.5 -69.5z" />
<glyph horiz-adv-x="1738" d="M788 205q-64 130 -61 321l-164 -37q-155 -37 -225 -86.5t-70 -148.5q0 -49 19.5 -85t52.5 -55t69.5 -27.5t77.5 -8.5q162 0 301 127zM1604 94q-178 -133 -390 -133q-98 0 -188.5 37.5t-153.5 103.5q-103 -64 -167 -90q-124 -51 -250 -51q-176 0 -275.5 77t-99.5 195 q0 125 86.5 209.5t284.5 128.5l278 64v41q0 291 -215 291q-147 0 -301 -158l-82 154q202 112 391 112q231 0 328 -166q65 78 159 122t201 44q87 0 163.5 -28.5t135.5 -83t93 -141t34 -193.5q0 -10 -1 -37t-1 -37l-735 -23q0 -202 105 -323t270 -121q137 0 282 96zM1450 662 q2 16 2 45q0 122 -68 192t-167 70q-128 0 -216 -89t-100 -239z" />
<glyph horiz-adv-x="671" d="M809 1571l-53 -148q-133 68 -209 68q-86 0 -128 -80.5t-42 -257.5v-104h233v-115h-233v-934h-172v934h-162v115h162v75q0 104 11 175t44 128q101 177 338 177q106 0 211 -33z" />
<glyph horiz-adv-x="1253" d="M809 1571l-53 -148q-133 68 -209 68q-86 0 -128 -80.5t-42 -257.5v-104h233v-115h-233v-934h-172v934h-162v115h162v75q0 104 11 175t44 128q101 177 338 177q106 0 211 -33zM1069 1049v-1049h-172v1049h172zM1098 1364q0 -48 -33.5 -83.5t-83.5 -35.5q-47 0 -81 35.5 t-34 83.5q0 51 34 87t81 36q50 0 83.5 -35.5t33.5 -87.5z" />
<glyph horiz-adv-x="1273" d="M809 1571l-53 -148q-133 68 -209 68q-86 0 -128 -80.5t-42 -257.5v-104h233v-115h-233v-934h-172v934h-162v115h162v75q0 104 11 175t44 128q101 177 338 177q106 0 211 -33zM1090 1571v-1571h-172v1571h172z" />
<glyph horiz-adv-x="1187" d="M1022 1049v-1094q0 -259 -124 -386.5t-376 -127.5q-81 0 -176 18.5t-158 46.5l35 177q105 -58 204 -90.5t167 -32.5q50 0 89.5 14.5t66 37.5t45 61.5t29 75t16 91t7 97.5t1.5 104q-115 -78 -264 -78q-206 0 -355 146q-137 149 -137 409q0 152 67.5 278.5t186 200.5 t262.5 74q84 0 184.5 -26.5t116.5 -26.5q50 0 84 31h29zM848 901q-102 57 -209 57q-71 0 -135 -29t-114.5 -83t-80.5 -141t-30 -195q0 -63 13 -123t41.5 -115t70 -96t101.5 -65.5t132 -24.5q109 0 162 59q49 49 49 134v622z" />
<glyph horiz-adv-x="692" d="M659 66q-148 -93 -262 -93q-88 0 -141 56q-45 54 -45 161v742h-188v117h188v297l170 45v-342h289v-117h-289v-744q0 -43 21 -63.5t55 -20.5q55 0 166 48z" />
<glyph horiz-adv-x="1003" d="M1042 1389l-112 -132q-65 90 -111 111q-28 16 -55 16q-30 0 -62 -18q-75 -58 -108 -291l-29 -209h277l-15 -114h-276l-84 -643q-25 -188 -132.5 -310.5t-248.5 -122.5q-132 0 -250 105l117 141q56 -84 113 -121q35 -20 53 -20q48 0 82 51q62 102 96 354l74 566h-195v114 h211l29 219q14 106 51.5 185t90 123.5t110 66t120.5 21.5q130 0 254 -92z" />
</font>
</defs>
</svg>
